<svg width="1072" height="212" viewBox="0 0 1072 212" fill="none" xmlns="http://www.w3.org/2000/svg">
<path d="M529.43 77L479 49.6655V20L558 61.9979L529.43 77Z" fill="#FCFCFC"/>
<path d="M529.695 99.3354L479 72.0017V101.666L529.363 129L667 52.3282V21L529.695 99.3354Z" fill="#FCFCFC"/>
<path d="M529.695 151.325L479 124.002V153.666L529.363 181L667 104.328V73L529.695 151.325Z" fill="#FCFCFC"/>
<path d="M548 191.947C549.339 191.617 668 123 668 123V153.457L575.41 206L548 191.947Z" fill="#FCFCFC"/>
<path d="M80.3664 18C85.4115 18 88.7517 22.0188 87.8543 26.9872L61.891 171.003C60.9937 175.971 56.1879 180 51.1428 180H20.6528C15.6077 180 12.2477 175.981 13.145 171.003L39.1083 26.9872C40.0057 22.0188 44.8115 18 49.8566 18H80.3664Z" fill="#FCFCFC"/>
<path d="M151.684 89.8044L136.961 170.979C136.058 175.95 131.224 179.97 126.15 179.97H95.7005C90.6257 179.97 87.2358 175.95 88.1485 170.979L114.235 26.9905C115.137 22.0202 119.981 18 125.046 18H163.87C166.568 18 168.945 19.1601 170.319 21.2002L216.283 102.675C217.446 104.395 220.084 103.925 220.445 101.945L234.025 26.9905C234.927 22.0202 239.761 18 244.836 18H275.285C280.36 18 283.75 22.0202 282.857 27.0105L256.761 170.999C255.858 175.97 251.014 180 245.95 180H212.321C209.603 180 207.256 178.82 205.872 176.79L155.826 89.0744C154.683 87.3543 152.035 87.8243 151.684 89.8044Z" fill="#FCFCFC"/>
<path d="M289.707 179.96C284.628 179.96 281.235 175.94 282.149 170.971L286.575 146.532C287.479 141.562 292.327 137.543 297.396 137.543H399.469C402.511 137.543 405.432 135.133 405.974 132.143L407.349 124.483C407.891 121.494 405.863 119.084 402.812 119.084H329.396C305.547 119.084 289.647 100.165 293.883 76.8064L296.884 60.2774C301.12 36.9288 323.885 18 347.735 18H456.293C461.372 18 464.765 22.0297 463.851 27.0194L459.615 50.298C458.712 55.2677 453.864 59.2974 448.795 59.2974H349.482C346.44 59.2974 343.519 61.7073 342.977 64.6971L341.12 74.8965C340.578 77.8863 342.616 80.2961 345.657 80.2961H419.073C442.923 80.2961 458.822 99.225 454.587 122.574L451.846 137.723C447.61 161.071 424.845 180 400.995 180H396.247V179.98H289.707V179.96Z" fill="#FCFCFC"/>
<path d="M701.695 180C696.624 180 693.236 175.975 694.148 171.011L720.267 26.9789C721.169 22.015 726.01 18 731.071 18H846.882C870.696 18 886.561 36.9066 882.312 60.2478L875.647 97.0624C872.74 113.073 861.074 126.916 846.341 134.047C845.278 134.566 844.737 135.745 845.238 136.624L864.321 169.733C866.847 174.207 863.7 179.551 858.568 179.551C842.612 179.551 832.71 180.05 826.195 179.96C815.07 180.13 811.382 179.66 809.348 175.635L791.878 141.667C791.127 140.189 789.593 139.28 787.759 139.28L750.686 139.32C749.673 139.32 748.701 140.139 748.531 141.128L743.119 171.001C742.216 175.965 737.376 179.98 732.314 179.98L701.695 180ZM756.579 96.9326C756.408 97.9413 757.08 98.7403 758.092 98.7403H818.027C822.537 98.7403 826.827 95.1547 827.649 90.7402L832.049 66.5201C832.85 62.0956 829.854 58.5 825.323 58.5H765.389C764.376 58.5 763.404 59.319 763.234 60.3078L756.579 96.9326Z" fill="#FCFCFC"/>
<path d="M886.139 171L912.197 27C913.096 22.041 917.932 18 922.987 18H1059.4C1062.42 18 1064.45 20.4246 1063.91 23.3881L1058.39 53.8902C1057.85 56.8736 1054.95 59.3082 1051.92 59.3082H957.107C956.098 59.3082 955.129 60.1264 954.959 61.1142L951.952 77.7971C951.782 78.7849 952.451 79.6031 953.46 79.6031H1029.72C1032.75 79.6031 1034.78 82.0078 1034.24 84.9911L1029.16 113.009C1028.63 115.972 1025.73 118.397 1022.7 118.397H946.446C945.437 118.397 944.468 119.215 944.298 120.203L941.481 135.768C941.311 136.756 941.97 137.574 942.989 137.574H1037.81C1040.83 137.574 1042.86 139.979 1042.32 142.962L1036.63 174.612C1036.09 177.575 1033.19 180 1030.15 180H893.703C888.627 179.99 885.26 175.959 886.139 171Z" fill="#FCFCFC"/>
</svg>
