<svg width="28" height="28" viewBox="0 0 28 28" fill="none" xmlns="http://www.w3.org/2000/svg">
<path d="M7.79476 4.3365C8.81058 3.32068 10.1883 2.75 11.6249 2.75C13.0615 2.75 14.4393 3.32068 15.4551 4.3365C16.4709 5.35233 17.0416 6.73008 17.0416 8.16667C17.0416 9.60326 16.4709 10.981 15.4551 11.9968C14.4393 13.0127 13.0615 13.5833 11.6249 13.5833C10.1883 13.5833 8.81058 13.0127 7.79476 11.9968C6.77893 10.981 6.20825 9.60326 6.20825 8.16667C6.20825 6.73008 6.77893 5.35233 7.79476 4.3365ZM11.6249 4.25C10.5862 4.25 9.58993 4.66265 8.85542 5.39716C8.1209 6.13168 7.70825 7.1279 7.70825 8.16667C7.70825 9.20543 8.1209 10.2017 8.85542 10.9362C9.58993 11.6707 10.5862 12.0833 11.6249 12.0833C12.6637 12.0833 13.6599 11.6707 14.3944 10.9362C15.1289 10.2017 15.5416 9.20543 15.5416 8.16667C15.5416 7.1279 15.1289 6.13168 14.3944 5.39716C13.6599 4.66265 12.6637 4.25 11.6249 4.25Z" fill="white"/>
<path d="M5.4615 18.3365C6.47733 17.3207 7.85508 16.75 9.29167 16.75H11.625C12.0392 16.75 12.375 17.0858 12.375 17.5C12.375 17.9142 12.0392 18.25 11.625 18.25H9.29167C8.2529 18.25 7.25668 18.6626 6.52216 19.3972C5.78765 20.1317 5.375 21.1279 5.375 22.1667V24.5C5.375 24.9142 5.03921 25.25 4.625 25.25C4.21079 25.25 3.875 24.9142 3.875 24.5V22.1667C3.875 20.7301 4.44568 19.3523 5.4615 18.3365Z" fill="white"/>
<path d="M18.9878 14.4773C19.1765 14.3965 19.3901 14.3965 19.5787 14.4773L23.6621 16.2273C23.9378 16.3455 24.1166 16.6167 24.1166 16.9167V20.2709C24.1166 22.1369 22.8845 23.6034 21.8188 24.5358C21.2703 25.0158 20.7252 25.3902 20.3188 25.6442C20.1148 25.7716 19.9438 25.8701 19.822 25.9375C19.761 25.9712 19.7123 25.9973 19.6778 26.0154L19.6369 26.0366L19.6248 26.0427L19.621 26.0447L19.6197 26.0454C19.6197 26.0454 19.6187 26.0458 19.2833 25.375L18.9474 26.0456L18.9455 26.0447L18.9417 26.0427L18.9297 26.0366L18.8888 26.0154C18.8543 25.9973 18.8055 25.9712 18.7446 25.9375C18.6228 25.8701 18.4517 25.7716 18.2478 25.6442C17.8414 25.3902 17.2963 25.0158 16.7477 24.5358C15.6821 23.6034 14.45 22.1369 14.45 20.2709V16.9167C14.45 16.6167 14.6287 16.3455 14.9045 16.2273L18.9878 14.4773ZM19.2833 24.518C19.3547 24.476 19.4355 24.4274 19.5238 24.3722C19.883 24.1476 20.3588 23.8202 20.8311 23.4069C21.8071 22.5529 22.6166 21.4673 22.6166 20.2709V17.4112L19.2833 15.9827L15.95 17.4112V20.2709C15.95 21.4673 16.7595 22.5529 17.7355 23.4069C18.2078 23.8202 18.6835 24.1476 19.0428 24.3722C19.1311 24.4274 19.2119 24.476 19.2833 24.518Z" fill="white"/>
<path d="M18.9474 26.0456C18.9474 26.0456 18.9479 26.0458 19.2833 25.375L19.6187 26.0458C19.4075 26.1514 19.1586 26.1512 18.9474 26.0456Z" fill="white"/>
</svg>
