<svg width="40" height="40" viewBox="0 0 40 40" fill="none" xmlns="http://www.w3.org/2000/svg">
<rect width="40" height="40" rx="8" fill="#008DA6"/>
<path d="M13.7948 10.3365C14.8106 9.32068 16.1883 8.75 17.6249 8.75C19.0615 8.75 20.4393 9.32068 21.4551 10.3365C22.4709 11.3523 23.0416 12.7301 23.0416 14.1667C23.0416 15.6033 22.4709 16.981 21.4551 17.9968C20.4393 19.0127 19.0615 19.5833 17.6249 19.5833C16.1883 19.5833 14.8106 19.0127 13.7948 17.9968C12.7789 16.981 12.2083 15.6033 12.2083 14.1667C12.2083 12.7301 12.7789 11.3523 13.7948 10.3365ZM17.6249 10.25C16.5862 10.25 15.5899 10.6626 14.8554 11.3972C14.1209 12.1317 13.7083 13.1279 13.7083 14.1667C13.7083 15.2054 14.1209 16.2017 14.8554 16.9362C15.5899 17.6707 16.5862 18.0833 17.6249 18.0833C18.6637 18.0833 19.6599 17.6707 20.3944 16.9362C21.1289 16.2017 21.5416 15.2054 21.5416 14.1667C21.5416 13.1279 21.1289 12.1317 20.3944 11.3972C19.6599 10.6626 18.6637 10.25 17.6249 10.25Z" fill="#F2F2F2"/>
<path d="M11.4615 24.3365C12.4773 23.3207 13.8551 22.75 15.2917 22.75H17.625C18.0392 22.75 18.375 23.0858 18.375 23.5C18.375 23.9142 18.0392 24.25 17.625 24.25H15.2917C14.2529 24.25 13.2567 24.6626 12.5222 25.3972C11.7876 26.1317 11.375 27.1279 11.375 28.1667V30.5C11.375 30.9142 11.0392 31.25 10.625 31.25C10.2108 31.25 9.875 30.9142 9.875 30.5V28.1667C9.875 26.7301 10.4457 25.3523 11.4615 24.3365Z" fill="#F2F2F2"/>
<path d="M24.9878 20.4773C25.1765 20.3965 25.3901 20.3965 25.5787 20.4773L29.6621 22.2273C29.9378 22.3455 30.1166 22.6167 30.1166 22.9167V26.2709C30.1166 28.1369 28.8845 29.6034 27.8188 30.5358C27.2703 31.0158 26.7252 31.3902 26.3188 31.6442C26.1148 31.7716 25.9438 31.8701 25.822 31.9375C25.761 31.9712 25.7123 31.9973 25.6778 32.0154L25.6369 32.0366L25.6248 32.0427L25.621 32.0447L25.6197 32.0454C25.6197 32.0454 25.6187 32.0458 25.2833 31.375L24.9474 32.0456L24.9455 32.0447L24.9417 32.0427L24.9297 32.0366L24.8888 32.0154C24.8543 31.9973 24.8055 31.9712 24.7446 31.9375C24.6228 31.8701 24.4517 31.7716 24.2478 31.6442C23.8414 31.3902 23.2963 31.0158 22.7477 30.5358C21.6821 29.6034 20.45 28.1369 20.45 26.2709V22.9167C20.45 22.6167 20.6287 22.3455 20.9045 22.2273L24.9878 20.4773ZM25.2833 30.518C25.3547 30.476 25.4355 30.4274 25.5238 30.3722C25.883 30.1476 26.3588 29.8202 26.8311 29.4069C27.8071 28.5529 28.6166 27.4673 28.6166 26.2709V23.4112L25.2833 21.9827L21.95 23.4112V26.2709C21.95 27.4673 22.7595 28.5529 23.7355 29.4069C24.2078 29.8202 24.6835 30.1476 25.0428 30.3722C25.1311 30.4274 25.2119 30.476 25.2833 30.518Z" fill="#F2F2F2"/>
<path d="M24.9474 32.0456C24.9474 32.0456 24.9479 32.0458 25.2833 31.375L25.6187 32.0458C25.4075 32.1514 25.1586 32.1512 24.9474 32.0456Z" fill="#F2F2F2"/>
</svg>
