<svg width="24" height="24" viewBox="0 0 24 24" fill="none" xmlns="http://www.w3.org/2000/svg">
<path d="M7.81802 3.81802C8.66193 2.97411 9.80653 2.5 11 2.5C12.1935 2.5 13.3381 2.97411 14.182 3.81802C15.0259 4.66193 15.5 5.80653 15.5 7C15.5 8.19347 15.0259 9.33807 14.182 10.182C13.3381 11.0259 12.1935 11.5 11 11.5C9.80653 11.5 8.66193 11.0259 7.81802 10.182C6.97411 9.33807 6.5 8.19347 6.5 7C6.5 5.80653 6.97411 4.66193 7.81802 3.81802ZM11 3.5C10.0717 3.5 9.1815 3.86875 8.52513 4.52513C7.86875 5.1815 7.5 6.07174 7.5 7C7.5 7.92826 7.86875 8.8185 8.52513 9.47487C9.1815 10.1313 10.0717 10.5 11 10.5C11.9283 10.5 12.8185 10.1313 13.4749 9.47487C14.1313 8.8185 14.5 7.92826 14.5 7C14.5 6.07174 14.1313 5.1815 13.4749 4.52513C12.8185 3.86875 11.9283 3.5 11 3.5Z" fill="white"/>
<path d="M9 15.5C8.07174 15.5 7.1815 15.8687 6.52513 16.5251C5.86875 17.1815 5.5 18.0717 5.5 19V21C5.5 21.2761 5.27614 21.5 5 21.5C4.72386 21.5 4.5 21.2761 4.5 21V19C4.5 17.8065 4.97411 16.6619 5.81802 15.818C6.66193 14.9741 7.80653 14.5 9 14.5H11C11.2761 14.5 11.5 14.7239 11.5 15C11.5 15.2761 11.2761 15.5 11 15.5H9Z" fill="white"/>
<path d="M17.697 12.5404C17.5712 12.4865 17.4288 12.4865 17.303 12.5404L13.803 14.0404C13.6192 14.1192 13.5 14.3 13.5 14.5V17.375C13.5 18.9107 14.5159 20.1314 15.4207 20.9232C15.8837 21.3282 16.3443 21.6446 16.6881 21.8595C16.8606 21.9673 17.005 22.0504 17.1075 22.1071C17.1587 22.1355 17.1996 22.1573 17.2283 22.1724L17.2621 22.1899L17.2717 22.1949L17.2747 22.1964L17.2761 22.1971C17.4169 22.2674 17.5835 22.2673 17.7243 22.1969L17.7253 22.1964L17.7283 22.1949L17.7379 22.1899L17.7717 22.1724C17.8004 22.1573 17.8413 22.1355 17.8925 22.1071C17.995 22.0504 18.1394 21.9673 18.3119 21.8595C18.6557 21.6446 19.1163 21.3282 19.5793 20.9232C20.4841 20.1314 21.5 18.9107 21.5 17.375V14.5C21.5 14.3 21.3808 14.1192 21.197 14.0404L17.697 12.5404ZM17.5 21.75C17.2764 22.1972 17.2761 22.1971 17.2761 22.1971L17.5 21.75ZM17.7243 22.1969C17.7243 22.1969 17.7236 22.1972 17.5 21.75L17.7243 22.1969ZM17.7819 21.0115C17.6735 21.0793 17.578 21.1358 17.5 21.1805C17.422 21.1358 17.3265 21.0793 17.2181 21.0115C16.9057 20.8163 16.4913 20.5311 16.0793 20.1706C15.2341 19.4311 14.5 18.4643 14.5 17.375V14.8297L17.5 13.544L20.5 14.8297V17.375C20.5 18.4643 19.7659 19.4311 18.9207 20.1706C18.5087 20.5311 18.0943 20.8163 17.7819 21.0115Z" fill="white"/>
</svg>
