<svg width="24" height="24" viewBox="0 0 24 24" fill="none" xmlns="http://www.w3.org/2000/svg">
<path d="M16.5 3C16.5 2.72386 16.2761 2.5 16 2.5C15.7239 2.5 15.5 2.72386 15.5 3V4.5H8.5V3C8.5 2.72386 8.27614 2.5 8 2.5C7.72386 2.5 7.5 2.72386 7.5 3V4.5H6C5.33696 4.5 4.70107 4.76339 4.23223 5.23223C3.76339 5.70107 3.5 6.33696 3.5 7V19C3.5 19.663 3.76339 20.2989 4.23223 20.7678C4.70107 21.2366 5.33696 21.5 6 21.5H18C18.663 21.5 19.2989 21.2366 19.7678 20.7678C20.2366 20.2989 20.5 19.663 20.5 19V7C20.5 6.33696 20.2366 5.70107 19.7678 5.23223C19.2989 4.76339 18.663 4.5 18 4.5H16.5V3ZM19.5 10.5H4.5V7C4.5 6.60218 4.65804 6.22064 4.93934 5.93934C5.22064 5.65804 5.60218 5.5 6 5.5H7.5V7C7.5 7.27614 7.72386 7.5 8 7.5C8.27614 7.5 8.5 7.27614 8.5 7V5.5H15.5V7C15.5 7.27614 15.7239 7.5 16 7.5C16.2761 7.5 16.5 7.27614 16.5 7V5.5H18C18.3978 5.5 18.7794 5.65804 19.0607 5.93934C19.342 6.22064 19.5 6.60218 19.5 7V10.5ZM4.5 11.5H19.5V19C19.5 19.3978 19.342 19.7794 19.0607 20.0607C18.7794 20.342 18.3978 20.5 18 20.5H6C5.60218 20.5 5.22064 20.342 4.93934 20.0607C4.65804 19.7794 4.5 19.3978 4.5 19V11.5Z" fill="white"/>
</svg>
