<svg width="24" height="24" viewBox="0 0 24 24" fill="none" xmlns="http://www.w3.org/2000/svg">
<path d="M9.003 13.5216L3.3365 12.0033C2.53633 11.7889 2.06146 10.9664 2.27584 10.1662L3.56977 5.33656C3.78416 4.53634 4.60666 4.06144 5.40688 4.27584L19.039 7.92839C19.9974 8.18518 20.4391 9.27873 19.9521 10.1237L20.2796 10.2328C21.0232 10.4807 21.4506 11.2593 21.2605 12.0197L20.7868 13.9143C20.5544 14.8441 19.5215 15.3204 18.6634 14.8935L17.5505 14.3398L17.3204 14.6883C16.9647 15.2272 16.304 15.478 15.6803 15.3109L10.003 13.7896V17.5C10.003 18.8807 8.88371 20 7.503 20H2.5C2.22386 20 2 19.7762 2 19.5C2 19.2239 2.22386 19 2.5 19H7.503C8.33143 19 9.003 18.3284 9.003 17.5V13.5216ZM4.5357 5.59534L3.24177 10.425C3.17031 10.6917 3.3286 10.9659 3.59533 11.0373L9.62332 12.6526C9.62964 12.6542 9.63591 12.6558 9.64213 12.6576L15.9392 14.345C16.1471 14.4007 16.3673 14.3171 16.4859 14.1374L16.9492 13.4355L18.9414 9.84729C18.9476 9.83609 18.9543 9.82513 18.9613 9.81444L19.068 9.65285C19.2561 9.36804 19.1099 8.98266 18.7802 8.89432L5.14807 5.24177C4.88133 5.1703 4.60716 5.3286 4.5357 5.59534ZM18.0681 13.4804L19.1089 13.9982C19.3949 14.1405 19.7392 13.9817 19.8167 13.6718L20.2903 11.7771C20.3537 11.5237 20.2112 11.2641 19.9634 11.1815L19.4411 11.0074L18.0681 13.4804Z" fill="white"/>
</svg>
