<svg width="20" height="20" viewBox="0 0 20 20" fill="none" xmlns="http://www.w3.org/2000/svg">
<path d="M17.5 18C17.7761 18 18 17.7762 18 17.5C18 17.2239 17.7761 17 17.5 17H17.1667V5.00004C17.1667 4.4254 16.9384 3.8743 16.5321 3.46798C16.1257 3.06165 15.5746 2.83337 15 2.83337H5C4.42536 2.83337 3.87426 3.06165 3.46793 3.46798C3.06161 3.8743 2.83333 4.42541 2.83333 5.00004V17H2.5C2.22386 17 2 17.2239 2 17.5C2 17.7762 2.22386 18 2.5 18H17.5ZM5 3.83337H15C15.3094 3.83337 15.6062 3.95629 15.825 4.17508C16.0437 4.39388 16.1667 4.69062 16.1667 5.00004V17H13V10.8334C13 10.0377 12.6839 9.27466 12.1213 8.71205C11.5587 8.14944 10.7956 7.83337 10 7.83337C9.20435 7.83337 8.44129 8.14944 7.87868 8.71205C7.31607 9.27466 7 10.0377 7 10.8334V17H3.83333V5.00004C3.83333 4.69062 3.95625 4.39388 4.17504 4.17508C4.39383 3.95629 4.69058 3.83337 5 3.83337ZM12 17H8V10.8334C8 10.3029 8.21071 9.79423 8.58579 9.41916C8.96086 9.04409 9.46957 8.83337 10 8.83337C10.5304 8.83337 11.0391 9.04409 11.4142 9.41916C11.7893 9.79423 12 10.3029 12 10.8334V17Z" fill="white"/>
</svg>
