<svg width="24" height="24" viewBox="0 0 24 24" fill="none" xmlns="http://www.w3.org/2000/svg">
<path fill-rule="evenodd" clip-rule="evenodd" d="M14 2.5C14.2761 2.5 14.5 2.72386 14.5 3V7C14.5 7.13261 14.5527 7.25978 14.6464 7.35355C14.7402 7.44732 14.8674 7.5 15 7.5H19C19.2761 7.5 19.5 7.72386 19.5 8C19.5 8.27614 19.2761 8.5 19 8.5H15C14.6022 8.5 14.2206 8.34196 13.9393 8.06066C13.658 7.77936 13.5 7.39783 13.5 7V3C13.5 2.72386 13.7239 2.5 14 2.5Z" fill="white"/>
<path fill-rule="evenodd" clip-rule="evenodd" d="M7 3.5C6.60218 3.5 6.22064 3.65804 5.93934 3.93934C5.65804 4.22064 5.5 4.60218 5.5 5V19C5.5 19.3978 5.65804 19.7794 5.93934 20.0607C6.22064 20.342 6.60218 20.5 7 20.5H17C17.3978 20.5 17.7794 20.342 18.0607 20.0607C18.342 19.7794 18.5 19.3978 18.5 19V8.20711L13.7929 3.5H7ZM5.23223 3.23223C5.70107 2.76339 6.33696 2.5 7 2.5H14C14.1326 2.5 14.2598 2.55268 14.3536 2.64645L19.3536 7.64645C19.4473 7.74021 19.5 7.86739 19.5 8L19.5 19C19.5 19.663 19.2366 20.2989 18.7678 20.7678C18.2989 21.2366 17.663 21.5 17 21.5H7C6.33696 21.5 5.70107 21.2366 5.23223 20.7678C4.76339 20.2989 4.5 19.663 4.5 19V5C4.5 4.33696 4.76339 3.70107 5.23223 3.23223Z" fill="white"/>
<path fill-rule="evenodd" clip-rule="evenodd" d="M8.49999 8.2C8.49999 7.92386 8.72385 7.7 8.99999 7.7H9.99999C10.2761 7.7 10.5 7.92386 10.5 8.2C10.5 8.47614 10.2761 8.7 9.99999 8.7H8.99999C8.72385 8.7 8.49999 8.47614 8.49999 8.2Z" fill="white"/>
<path fill-rule="evenodd" clip-rule="evenodd" d="M8.49999 14.2C8.49999 13.9239 8.72385 13.7 8.99999 13.7H15C15.2761 13.7 15.5 13.9239 15.5 14.2C15.5 14.4761 15.2761 14.7 15 14.7H8.99999C8.72385 14.7 8.49999 14.4761 8.49999 14.2Z" fill="white"/>
<path fill-rule="evenodd" clip-rule="evenodd" d="M12.5 17C12.5 16.7239 12.7239 16.5 13 16.5H15C15.2761 16.5 15.5 16.7239 15.5 17C15.5 17.2761 15.2761 17.5 15 17.5H13C12.7239 17.5 12.5 17.2761 12.5 17Z" fill="white"/>
<path fill-rule="evenodd" clip-rule="evenodd" d="M8.49999 11C8.49999 10.7239 8.72385 10.5 8.99999 10.5H15C15.2761 10.5 15.5 10.7239 15.5 11C15.5 11.2761 15.2761 11.5 15 11.5H8.99999C8.72385 11.5 8.49999 11.2761 8.49999 11Z" fill="white"/>
</svg>
