<svg width="24" height="24" viewBox="0 0 24 24" fill="none" xmlns="http://www.w3.org/2000/svg">
<path d="M11.2266 3.52738C9.95858 3.64353 8.72937 4.04347 7.63162 4.70153C6.31185 5.49268 5.2316 6.62724 4.50609 7.98421C3.78057 9.34117 3.43702 10.8696 3.51207 12.4065C3.58712 13.9434 4.07796 15.4311 4.93224 16.711C5.78651 17.9908 6.97217 19.0147 8.36274 19.6735C9.75332 20.3323 11.2966 20.6013 12.8281 20.4517C14.3595 20.3021 15.8217 19.7397 17.0585 18.8243C17.9873 18.1369 18.763 17.2698 19.3417 16.2788C17.9334 16.6124 16.4529 16.5593 15.06 16.1136C13.2784 15.5436 11.7529 14.3672 10.7487 12.7891C9.74444 11.211 9.32495 9.33083 9.56314 7.4755C9.74933 6.0252 10.3282 4.66175 11.2266 3.52738ZM12.0893 2.49994H12.3928C12.5984 2.49994 12.783 2.62577 12.8582 2.81711C12.9333 3.00844 12.8837 3.22629 12.7331 3.36623C11.5341 4.48035 10.7634 5.97941 10.555 7.60283C10.3466 9.22625 10.7136 10.8714 11.5924 12.2522C12.4711 13.6331 13.8059 14.6624 15.3648 15.1612C16.9236 15.66 18.608 15.5968 20.1251 14.9825C20.312 14.9068 20.526 14.9508 20.668 15.094C20.8099 15.2372 20.8519 15.4517 20.7745 15.6378C20.1145 17.2259 19.0358 18.605 17.6534 19.6281C16.2711 20.6512 14.6369 21.2798 12.9253 21.447C11.2137 21.6141 9.48877 21.3135 7.9346 20.5772C6.38043 19.8409 5.05528 18.6965 4.1005 17.2661C3.14573 15.8357 2.59714 14.173 2.51326 12.4553C2.42938 10.7376 2.81335 9.02931 3.62422 7.51271C4.43509 5.9961 5.64243 4.72806 7.11747 3.84383C8.5925 2.9596 10.2799 2.49236 11.9997 2.49194C12.0298 2.49194 12.0601 2.49465 12.0893 2.49994Z" fill="white"/>
</svg>
