<svg width="40" height="40" viewBox="0 0 40 40" fill="none" xmlns="http://www.w3.org/2000/svg">
<rect width="40" height="40" rx="8" fill="#7B61FF"/>
<path d="M12.19 10.7844C11.2564 10.5342 10.2969 11.0883 10.0467 12.0219L8.45089 17.9784C8.20078 18.912 8.75479 19.8715 9.68833 20.1217L16.3369 21.9032V26.75C16.3369 27.4403 15.7773 28 15.0869 28H8.91675C8.50253 28 8.16675 28.3358 8.16675 28.75C8.16675 29.1642 8.50253 29.5 8.91675 29.5H15.0869C16.6057 29.5 17.8369 28.2687 17.8369 26.75V22.3051L24.3665 24.0548C25.0942 24.2498 25.8649 23.9572 26.2799 23.3285L26.5334 22.9446L27.8855 23.6173C28.8866 24.1153 30.0916 23.5597 30.3628 22.4749L31.0031 19.9136C31.2249 19.0264 30.7263 18.1181 29.8587 17.8289L29.5369 17.7217C30.1161 16.7343 29.6012 15.4494 28.4786 15.1487L12.19 10.7844ZM11.4956 12.41C11.5314 12.2767 11.6685 12.1975 11.8018 12.2333L28.0904 16.5976C28.2552 16.6417 28.3284 16.8344 28.2343 16.9768L27.9823 17.3583C27.9717 17.3744 27.9618 17.3908 27.9524 17.4076L25.6313 21.5883L25.0281 22.5021C24.9688 22.592 24.8587 22.6338 24.7547 22.6059L17.2995 20.6082C17.2876 20.6047 17.2755 20.6015 17.2633 20.5985L10.0766 18.6728C9.9432 18.6371 9.86406 18.5 9.89979 18.3666L11.4956 12.41ZM27.3097 21.6554L28.7597 19.0437L29.3844 19.252C29.5083 19.2933 29.5796 19.423 29.5479 19.5498L28.9075 22.1111C28.8688 22.2661 28.6967 22.3455 28.5536 22.2743L27.3097 21.6554Z" fill="#F2F2F2"/>
</svg>
