<svg width="28" height="28" viewBox="0 0 28 28" fill="none" xmlns="http://www.w3.org/2000/svg">
<path d="M6.19003 4.78436C5.25645 4.53422 4.29686 5.08827 4.04673 6.02186L2.45089 11.9784C2.20078 12.912 2.75479 13.8715 3.68833 14.1217L10.3369 15.9032V20.75C10.3369 21.4403 9.77727 22 9.08692 22H2.91675C2.50253 22 2.16675 22.3358 2.16675 22.75C2.16675 23.1642 2.50253 23.5 2.91675 23.5H9.08692C10.6057 23.5 11.8369 22.2687 11.8369 20.75V16.3051L18.3665 18.0548C19.0942 18.2498 19.8649 17.9572 20.2799 17.3285L20.5334 16.9446L21.8855 17.6173C22.8866 18.1153 24.0916 17.5597 24.3628 16.4749L25.0031 13.9136C25.2249 13.0264 24.7263 12.1181 23.8587 11.8289L23.5369 11.7217C24.1161 10.7343 23.6012 9.44945 22.4786 9.14866L6.19003 4.78436ZM5.49564 6.41004C5.53137 6.27667 5.66845 6.19752 5.80182 6.23326L22.0904 10.5976C22.2552 10.6417 22.3284 10.8344 22.2343 10.9768L21.9823 11.3583C21.9717 11.3744 21.9618 11.3908 21.9524 11.4076L19.6313 15.5883L19.0281 16.5021C18.9688 16.592 18.8587 16.6338 18.7547 16.6059L11.2995 14.6082C11.2876 14.6047 11.2755 14.6015 11.2633 14.5985L4.07657 12.6728C3.9432 12.6371 3.86406 12.5 3.89979 12.3666L5.49564 6.41004ZM21.3097 15.6554L22.7597 13.0437L23.3844 13.252C23.5083 13.2933 23.5796 13.423 23.5479 13.5498L22.9075 16.1111C22.8688 16.2661 22.6967 16.3455 22.5536 16.2743L21.3097 15.6554Z" fill="white"/>
</svg>
