<svg width="28" height="28" viewBox="0 0 28 28" fill="none" xmlns="http://www.w3.org/2000/svg">
<path d="M11.0869 15.3276V20.75C11.0869 21.8545 10.1915 22.75 9.08692 22.75H2.91675" stroke="white" stroke-width="1.5" stroke-linecap="round" stroke-linejoin="round"/>
<path d="M24.4545 13.0152L23.6055 16.411C23.4657 16.9703 22.8445 17.2568 22.3284 17L24.3125 12.8333C24.4077 12.8333 24.4776 12.9228 24.4545 13.0152Z" fill="white" stroke="white" stroke-linecap="round" stroke-linejoin="round"/>
<path d="M19.645 16.87C19.4154 17.2529 18.9598 17.4372 18.5285 17.3217L3.88263 13.3972C3.34918 13.2543 3.0326 12.706 3.17553 12.1725L4.77137 6.21596C4.9143 5.68248 5.46264 5.36588 5.99611 5.50881L22.3445 9.88912C22.9862 10.0611 23.285 10.7995 22.9433 11.3693L19.645 16.87Z" fill="white"/>
</svg>
