<svg width="24" height="24" viewBox="0 0 24 24" fill="none" xmlns="http://www.w3.org/2000/svg">
<path d="M14 2.5C14.2761 2.5 14.5 2.72386 14.5 3V7C14.5 7.13261 14.5527 7.25978 14.6464 7.35355C14.7402 7.44732 14.8674 7.5 15 7.5H19C19.2761 7.5 19.5 7.72386 19.5 8C19.5 8.27614 19.2761 8.5 19 8.5H15C14.6022 8.5 14.2206 8.34196 13.9393 8.06066C13.658 7.77936 13.5 7.39783 13.5 7V3C13.5 2.72386 13.7239 2.5 14 2.5Z" fill="white"/>
<path d="M7 3.5C6.60218 3.5 6.22064 3.65804 5.93934 3.93934C5.65804 4.22064 5.5 4.60218 5.5 5V19C5.5 19.3978 5.65804 19.7794 5.93934 20.0607C6.22064 20.342 6.60218 20.5 7 20.5H17C17.3978 20.5 17.7794 20.342 18.0607 20.0607C18.342 19.7794 18.5 19.3978 18.5 19V8.20711L13.7929 3.5H7ZM5.23223 3.23223C5.70107 2.76339 6.33696 2.5 7 2.5H14C14.1326 2.5 14.2598 2.55268 14.3536 2.64645L19.3536 7.64645C19.4473 7.74021 19.5 7.86739 19.5 8V19C19.5 19.663 19.2366 20.2989 18.7678 20.7678C18.2989 21.2366 17.663 21.5 17 21.5H7C6.33696 21.5 5.70107 21.2366 5.23223 20.7678C4.76339 20.2989 4.5 19.663 4.5 19V5C4.5 4.33696 4.76339 3.70107 5.23223 3.23223Z" fill="white"/>
<path d="M12 10.5C12.2761 10.5 12.5 10.7239 12.5 11V17C12.5 17.2761 12.2761 17.5 12 17.5C11.7239 17.5 11.5 17.2761 11.5 17V11C11.5 10.7239 11.7239 10.5 12 10.5Z" fill="white"/>
<path d="M9.14645 14.1464C9.34171 13.9512 9.65829 13.9512 9.85355 14.1464L12 16.2929L14.1464 14.1464C14.3417 13.9512 14.6583 13.9512 14.8536 14.1464C15.0488 14.3417 15.0488 14.6583 14.8536 14.8536L12.3536 17.3536C12.1583 17.5488 11.8417 17.5488 11.6464 17.3536L9.14645 14.8536C8.95118 14.6583 8.95118 14.3417 9.14645 14.1464Z" fill="white"/>
</svg>
