<svg width="20" height="20" viewBox="0 0 20 20" fill="none" xmlns="http://www.w3.org/2000/svg">
  <path
    d="M13.7499 3.39307C12.9922 3.39307 12.2655 3.69407 11.7297 4.22987L2.9797 12.9799C2.88593 13.0736 2.83325 13.2008 2.83325 13.3334V16.6668C2.83325 16.9429 3.05711 17.1668 3.33325 17.1668H6.66659C6.79919 17.1668 6.92637 17.1141 7.02014 17.0203L14.9317 9.10876C14.9334 9.10707 14.9352 9.10536 14.9369 9.10363C14.9386 9.10191 14.9403 9.10018 14.942 9.09843L15.7701 8.27031C16.3059 7.73451 16.6069 7.00782 16.6069 6.25009C16.6069 5.49236 16.3059 4.76567 15.7701 4.22987C15.2343 3.69407 14.5076 3.39307 13.7499 3.39307ZM14.5833 8.04294L11.9571 5.41671L12.4368 4.93698C12.7851 4.58872 13.2574 4.39307 13.7499 4.39307C14.2424 4.39307 14.7148 4.58872 15.063 4.93698C15.4113 5.28523 15.6069 5.75758 15.6069 6.25009C15.6069 6.7426 15.4113 7.21494 15.063 7.5632L14.5833 8.04294ZM11.25 6.12382L13.8762 8.75004L6.45948 16.1668H3.83325V13.5405L11.25 6.12382Z"
    fill="white" />
</svg>