<svg width="24" height="24" viewBox="0 0 24 24" fill="none" xmlns="http://www.w3.org/2000/svg">
<path d="M16.5 4.17157C15.6172 4.17157 14.7706 4.52224 14.1464 5.14644L3.64645 15.6464C3.55268 15.7402 3.5 15.8674 3.5 16V20C3.5 20.2761 3.72386 20.5 4 20.5H8C8.13261 20.5 8.25979 20.4473 8.35355 20.3535L17.8525 10.8546L17.8536 10.8536L17.8546 10.8525L18.8536 9.85355C19.4778 9.22935 19.8284 8.38275 19.8284 7.5C19.8284 6.61724 19.4778 5.77065 18.8536 5.14644C18.2294 4.52224 17.3828 4.17157 16.5 4.17157ZM17.5 9.79289L14.2071 6.5L14.8536 5.85355C15.2902 5.41689 15.8825 5.17157 16.5 5.17157C17.1175 5.17157 17.7098 5.41689 18.1464 5.85355C18.5831 6.29022 18.8284 6.88246 18.8284 7.5C18.8284 8.11753 18.5831 8.70978 18.1464 9.14644L17.5 9.79289ZM13.5 7.20711L16.7929 10.5L7.79289 19.5H4.5V16.2071L13.5 7.20711Z" fill="white"/>
</svg>
