<svg width="24" height="24" viewBox="0 0 24 24" fill="none" xmlns="http://www.w3.org/2000/svg">
<path d="M5.40381 5.40381C6.62279 4.18482 8.27609 3.5 10 3.5C11.7239 3.5 13.3772 4.18482 14.5962 5.40381C15.8152 6.62279 16.5 8.27609 16.5 10C16.5 11.7148 15.8224 13.3598 14.6154 14.5769C15.0479 14.6868 15.4469 14.9114 15.7678 15.2322C16.0957 15.5602 16.3232 15.9699 16.4302 16.4135C17.0473 16.2692 17.6343 16.0129 18.1613 15.656C18.8281 15.2045 19.3808 14.6043 19.776 13.9027C20.1711 13.201 20.3978 12.4172 20.4382 11.613C20.4745 10.8909 20.3598 10.1702 20.1023 9.49651C20.0684 9.49883 20.0343 9.5 20 9.5C19.6022 9.5 19.2206 9.34196 18.9393 9.06066C18.658 8.77936 18.5 8.39782 18.5 8C18.5 7.60218 18.658 7.22065 18.9393 6.93934C19.2206 6.65804 19.6022 6.5 20 6.5C20.3978 6.5 20.7794 6.65804 21.0607 6.93934C21.342 7.22065 21.5 7.60218 21.5 8C21.5 8.39782 21.342 8.77936 21.0607 9.06066C21.0476 9.07373 21.0343 9.08652 21.0208 9.09905C21.3388 9.91389 21.481 10.7877 21.437 11.6632C21.3888 12.6221 21.1184 13.5567 20.6473 14.3934C20.1761 15.23 19.5171 15.9457 18.7221 16.484C18.0488 16.94 17.2936 17.2581 16.5 17.422V18C16.5 18.663 16.2366 19.2989 15.7678 19.7678C15.2989 20.2366 14.663 20.5 14 20.5H6C5.33696 20.5 4.70107 20.2366 4.23223 19.7678C3.76339 19.2989 3.5 18.663 3.5 18V17C3.5 16.337 3.76339 15.7011 4.23223 15.2322C4.55307 14.9114 4.95214 14.6868 5.38461 14.5769C4.17763 13.3598 3.5 11.7148 3.5 10C3.5 8.27609 4.18482 6.62279 5.40381 5.40381ZM15.5 16.9928C15.4981 16.5975 15.3403 16.2189 15.0607 15.9393C14.7794 15.658 14.3978 15.5 14 15.5H13.5C13.4886 15.5 13.4772 15.4996 13.466 15.4989C12.4364 16.1478 11.2364 16.5 10 16.5C8.76364 16.5 7.5636 16.1478 6.53404 15.4989C6.52279 15.4996 6.51144 15.5 6.5 15.5H6C5.60218 15.5 5.22064 15.658 4.93934 15.9393C4.65804 16.2206 4.5 16.6022 4.5 17V18C4.5 18.3978 4.65804 18.7794 4.93934 19.0607C5.22064 19.342 5.60218 19.5 6 19.5H14C14.3978 19.5 14.7794 19.342 15.0607 19.0607C15.342 18.7794 15.5 18.3978 15.5 18V17.0072L15.5 16.9928ZM10 4.5C8.54131 4.5 7.14236 5.07946 6.11091 6.11091C5.07946 7.14236 4.5 8.54131 4.5 10C4.5 11.4587 5.07946 12.8576 6.11091 13.8891C7.14236 14.9205 8.54131 15.5 10 15.5C11.4587 15.5 12.8576 14.9205 13.8891 13.8891C14.9205 12.8576 15.5 11.4587 15.5 10C15.5 8.54131 14.9205 7.14236 13.8891 6.11091C12.8576 5.07946 11.4587 4.5 10 4.5Z" fill="white"/>
<path d="M11 10C11 10.5523 10.5523 11 10 11C9.44772 11 9 10.5523 9 10C9 9.44772 9.44772 9 10 9C10.5523 9 11 9.44772 11 10Z" fill="white"/>
</svg>
