<svg width="40" height="40" viewBox="0 0 40 40" fill="none" xmlns="http://www.w3.org/2000/svg">
<rect width="40" height="40" rx="8" fill="#A800F0"/>
<path d="M17.7 16.375C17.0786 16.375 16.575 16.8787 16.575 17.5C16.575 18.1213 17.0786 18.625 17.7 18.625C18.3213 18.625 18.825 18.1213 18.825 17.5C18.825 16.8787 18.3213 16.375 17.7 16.375Z" fill="#F2F2F2"/>
<path d="M17.6667 9.91669C15.6113 9.91669 13.6401 10.7332 12.1867 12.1866C10.7333 13.64 9.91675 15.6113 9.91675 17.6667C9.91675 19.6197 10.6539 21.4967 11.9742 22.9257C11.5439 23.0775 11.1486 23.3243 10.8198 23.6531C10.2416 24.2313 9.91675 25.0156 9.91675 25.8333V27C9.91675 27.8178 10.2416 28.602 10.8198 29.1802C11.3981 29.7585 12.1823 30.0833 13.0001 30.0833H22.3334C23.1512 30.0833 23.9354 29.7585 24.5137 29.1802C25.0919 28.602 25.4167 27.8178 25.4167 27V26.4601C26.3152 26.2573 27.1699 25.888 27.9358 25.3694C28.8847 24.7268 29.6713 23.8726 30.2336 22.874C30.796 21.8755 31.1186 20.76 31.1762 19.6154C31.2269 18.6073 31.0706 17.6009 30.7187 16.6579C31.0594 16.3017 31.2501 15.8273 31.2501 15.3334C31.2501 14.825 31.0481 14.3375 30.6887 13.9781C30.3293 13.6186 29.8417 13.4167 29.3334 13.4167C28.8251 13.4167 28.3376 13.6186 27.9781 13.9781C27.6187 14.3375 27.4167 14.825 27.4167 15.3334C27.4167 15.8417 27.6187 16.3292 27.9781 16.6886C28.3376 17.0481 28.8251 17.25 29.3334 17.25L29.3382 17.25C29.6012 17.9822 29.7173 18.7605 29.6781 19.5401C29.6322 20.4526 29.375 21.3419 28.9266 22.138C28.4783 22.9341 27.8512 23.6151 27.0947 24.1274C26.5413 24.5021 25.9299 24.779 25.2869 24.948C25.1416 24.4634 24.8779 24.0173 24.5137 23.6531C24.1849 23.3243 23.7896 23.0775 23.3593 22.9257C24.6796 21.4967 25.4167 19.6197 25.4167 17.6667C25.4167 15.6113 24.6002 13.64 23.1468 12.1866C21.6934 10.7332 19.7222 9.91669 17.6667 9.91669ZM13.2473 13.2473C14.4194 12.0752 16.0091 11.4167 17.6667 11.4167C19.3244 11.4167 20.9141 12.0752 22.0862 13.2473C23.2583 14.4194 23.9167 16.0091 23.9167 17.6667C23.9167 19.3243 23.2583 20.914 22.0862 22.0861C20.9141 23.2582 19.3244 23.9167 17.6667 23.9167C16.0091 23.9167 14.4194 23.2582 13.2473 22.0861C12.0752 20.914 11.4167 19.3243 11.4167 17.6667C11.4167 16.0091 12.0752 14.4194 13.2473 13.2473ZM17.6667 25.4167C19.1236 25.4167 20.5382 25.0065 21.7561 24.25H22.3334C22.7533 24.25 23.1561 24.4168 23.453 24.7137C23.7461 25.0068 23.9124 25.403 23.9167 25.8171L23.9167 27C23.9167 27.4199 23.7499 27.8227 23.453 28.1196C23.1561 28.4165 22.7533 28.5833 22.3334 28.5833H13.0001C12.5802 28.5833 12.1774 28.4165 11.8805 28.1196C11.5836 27.8227 11.4167 27.4199 11.4167 27V25.8333C11.4167 25.4134 11.5836 25.0107 11.8805 24.7137C12.1774 24.4168 12.5802 24.25 13.0001 24.25H13.5774C14.7953 25.0065 16.2099 25.4167 17.6667 25.4167Z" fill="#F2F2F2"/>
</svg>
