<svg width="28" height="28" viewBox="0 0 28 28" fill="none" xmlns="http://www.w3.org/2000/svg">
<path d="M11.7 10.375C11.0786 10.375 10.575 10.8787 10.575 11.5C10.575 12.1213 11.0786 12.625 11.7 12.625C12.3213 12.625 12.825 12.1213 12.825 11.5C12.825 10.8787 12.3213 10.375 11.7 10.375Z" fill="white"/>
<path d="M11.6667 3.91669C9.61132 3.91669 7.64008 4.7332 6.18667 6.18661C4.73326 7.64002 3.91675 9.61126 3.91675 11.6667C3.91675 13.6197 4.65392 15.4967 5.97417 16.9257C5.54394 17.0775 5.14859 17.3243 4.81984 17.6531C4.2416 18.2313 3.91675 19.0156 3.91675 19.8333V21C3.91675 21.8178 4.2416 22.602 4.81984 23.1802C5.39807 23.7585 6.18233 24.0833 7.00008 24.0833H16.3334C17.1512 24.0833 17.9354 23.7585 18.5137 23.1802C19.0919 22.602 19.4167 21.8178 19.4167 21V20.4601C20.3152 20.2573 21.1699 19.888 21.9358 19.3694C22.8847 18.7268 23.6713 17.8726 24.2336 16.874C24.796 15.8755 25.1186 14.76 25.1762 13.6154C25.2269 12.6073 25.0706 11.6009 24.7187 10.6579C25.0594 10.3017 25.2501 9.82735 25.2501 9.33335C25.2501 8.82502 25.0481 8.33751 24.6887 7.97807C24.3293 7.61862 23.8417 7.41669 23.3334 7.41669C22.8251 7.41669 22.3376 7.61862 21.9781 7.97807C21.6187 8.33751 21.4167 8.82502 21.4167 9.33335C21.4167 9.84168 21.6187 10.3292 21.9781 10.6886C22.3376 11.0481 22.8251 11.25 23.3334 11.25L23.3382 11.25C23.6012 11.9822 23.7173 12.7605 23.6781 13.5401C23.6322 14.4526 23.375 15.3419 22.9266 16.138C22.4783 16.9341 21.8512 17.6151 21.0947 18.1274C20.5413 18.5021 19.9299 18.779 19.2869 18.948C19.1416 18.4634 18.8779 18.0173 18.5137 17.6531C18.1849 17.3243 17.7896 17.0775 17.3593 16.9257C18.6796 15.4967 19.4167 13.6197 19.4167 11.6667C19.4167 9.61126 18.6002 7.64002 17.1468 6.18661C15.6934 4.7332 13.7222 3.91669 11.6667 3.91669ZM7.24733 7.24727C8.41943 6.07517 10.0091 5.41669 11.6667 5.41669C13.3244 5.41669 14.9141 6.07517 16.0862 7.24727C17.2583 8.41937 17.9167 10.0091 17.9167 11.6667C17.9167 13.3243 17.2583 14.914 16.0862 16.0861C14.9141 17.2582 13.3244 17.9167 11.6667 17.9167C10.0091 17.9167 8.41943 17.2582 7.24733 16.0861C6.07523 14.914 5.41675 13.3243 5.41675 11.6667C5.41675 10.0091 6.07523 8.41937 7.24733 7.24727ZM11.6667 19.4167C13.1236 19.4167 14.5382 19.0065 15.7561 18.25H16.3334C16.7533 18.25 17.1561 18.4168 17.453 18.7137C17.7461 19.0068 17.9124 19.403 17.9167 19.8171L17.9167 21C17.9167 21.4199 17.7499 21.8227 17.453 22.1196C17.1561 22.4165 16.7533 22.5833 16.3334 22.5833H7.00008C6.58016 22.5833 6.17743 22.4165 5.8805 22.1196C5.58356 21.8227 5.41675 21.4199 5.41675 21V19.8333C5.41675 19.4134 5.58356 19.0107 5.8805 18.7137C6.17743 18.4168 6.58016 18.25 7.00008 18.25H7.57739C8.79526 19.0065 10.2099 19.4167 11.6667 19.4167Z" fill="white"/>
</svg>
