<svg width="28" height="28" viewBox="0 0 28 28" fill="none" xmlns="http://www.w3.org/2000/svg">
<path d="M7.41675 11.0833C7.41675 11.8197 8.0137 12.4167 8.75008 12.4167C9.48646 12.4167 10.0834 11.8197 10.0834 11.0833C10.0834 10.347 9.48646 9.75 8.75008 9.75C8.0137 9.75 7.41675 10.347 7.41675 11.0833Z" fill="white"/>
<path d="M19.2501 9.75C18.5137 9.75 17.9167 10.347 17.9167 11.0833C17.9167 11.8197 18.5137 12.4167 19.2501 12.4167C19.9865 12.4167 20.5834 11.8197 20.5834 11.0833C20.5834 10.347 19.9865 9.75 19.2501 9.75Z" fill="white"/>
<path d="M25.25 19.8473C25.2463 20.66 24.9219 21.4386 24.3469 22.0136C23.7687 22.5918 22.9844 22.9166 22.1667 22.9166H5.83333C5.01558 22.9166 4.23132 22.5918 3.65309 22.0136C3.07485 21.4353 2.75 20.6511 2.75 19.8333V8.16665C2.75 7.3489 3.07485 6.56464 3.65309 5.9864C4.23132 5.40816 5.01558 5.08331 5.83333 5.08331H22.1667C22.9844 5.08331 23.7687 5.40816 24.3469 5.9864C24.9251 6.56464 25.25 7.3489 25.25 8.16665V19.8224L25.25 19.8473ZM4.71375 7.04706C4.41682 7.34399 4.25 7.74672 4.25 8.16665V18.3333L7.71671 15.7333C7.84653 15.6359 8.00443 15.5833 8.16671 15.5833H19.8334C19.9957 15.5833 20.1536 15.6359 20.2834 15.7333L23.75 18.3333V8.16665C23.75 7.74672 23.5832 7.34399 23.2863 7.04706C22.9893 6.75013 22.5866 6.58331 22.1667 6.58331H5.83333C5.41341 6.58331 5.01068 6.75013 4.71375 7.04706ZM4.28833 20.1796C4.35346 20.4702 4.49984 20.739 4.71375 20.9529C5.01068 21.2498 5.41341 21.4166 5.83333 21.4166H22.1667C22.5866 21.4166 22.9893 21.2498 23.2863 20.9529C23.5002 20.739 23.6466 20.4702 23.7117 20.1795L19.5834 17.0833H8.41671L4.28833 20.1796Z" fill="white"/>
</svg>
