<svg width="28" height="28" viewBox="0 0 28 28" fill="none" xmlns="http://www.w3.org/2000/svg">
<path d="M4.66667 2.75C4.15834 2.75 3.67082 2.95193 3.31138 3.31138C2.95193 3.67082 2.75 4.15834 2.75 4.66667V18.6667C2.75 19.175 2.95193 19.6625 3.31138 20.022C3.67082 20.3814 4.15834 20.5833 4.66667 20.5833H10.8171L10.4212 23.75H9.33325C8.91904 23.75 8.58325 24.0858 8.58325 24.5C8.58325 24.9142 8.91904 25.25 9.33325 25.25H18.6666C19.0808 25.25 19.4166 24.9142 19.4166 24.5C19.4166 24.0858 19.0808 23.75 18.6666 23.75H17.5787L17.1829 20.5833H23.3333C23.8417 20.5833 24.3292 20.3814 24.6886 20.022C25.0481 19.6625 25.25 19.175 25.25 18.6667V4.66667C25.25 4.15834 25.0481 3.67082 24.6886 3.31138C24.3292 2.95193 23.8417 2.75 23.3333 2.75H4.66667ZM4.37204 4.37204C4.45018 4.2939 4.55616 4.25 4.66667 4.25H23.3333C23.4438 4.25 23.5498 4.2939 23.628 4.37204C23.7061 4.45018 23.75 4.55616 23.75 4.66667V14.4167H4.25V4.66667C4.25 4.55616 4.2939 4.45018 4.37204 4.37204ZM4.25 18.6667V15.9167H23.75V18.6667C23.75 18.7772 23.7061 18.8832 23.628 18.9613C23.5498 19.0394 23.4438 19.0833 23.3333 19.0833H16.3451L16.3385 19.0833L16.323 19.0833H11.677C11.6696 19.0832 11.6622 19.0832 11.6548 19.0833H4.66667C4.55616 19.0833 4.45018 19.0394 4.37204 18.9613C4.2939 18.8832 4.25 18.7772 4.25 18.6667ZM11.9329 23.75L12.3287 20.5833H15.6712L16.0671 23.75H11.9329Z" fill="white"/>
</svg>
