<svg width="40" height="40" viewBox="0 0 40 40" fill="none" xmlns="http://www.w3.org/2000/svg">
<rect width="40" height="40" rx="8" fill="#7A7A7A"/>
<path d="M13.4167 17.0833C13.4167 17.8197 14.0137 18.4167 14.7501 18.4167C15.4865 18.4167 16.0834 17.8197 16.0834 17.0833C16.0834 16.347 15.4865 15.75 14.7501 15.75C14.0137 15.75 13.4167 16.347 13.4167 17.0833Z" fill="#F2F2F2"/>
<path d="M25.2501 15.75C24.5137 15.75 23.9167 16.347 23.9167 17.0833C23.9167 17.8197 24.5137 18.4167 25.2501 18.4167C25.9865 18.4167 26.5834 17.8197 26.5834 17.0833C26.5834 16.347 25.9865 15.75 25.2501 15.75Z" fill="#F2F2F2"/>
<path d="M31.25 25.8473C31.2463 26.66 30.9219 27.4386 30.3469 28.0136C29.7687 28.5918 28.9844 28.9166 28.1667 28.9166H11.8333C11.0156 28.9166 10.2313 28.5918 9.65309 28.0136C9.07485 27.4353 8.75 26.6511 8.75 25.8333V14.1666C8.75 13.3489 9.07485 12.5646 9.65309 11.9864C10.2313 11.4082 11.0156 11.0833 11.8333 11.0833H28.1667C28.9844 11.0833 29.7687 11.4082 30.3469 11.9864C30.9251 12.5646 31.25 13.3489 31.25 14.1666V25.8224L31.25 25.8473ZM10.7137 13.0471C10.4168 13.344 10.25 13.7467 10.25 14.1666V24.3333L13.7167 21.7333C13.8465 21.6359 14.0044 21.5833 14.1667 21.5833H25.8334C25.9957 21.5833 26.1536 21.6359 26.2834 21.7333L29.75 24.3333V14.1666C29.75 13.7467 29.5832 13.344 29.2863 13.0471C28.9893 12.7501 28.5866 12.5833 28.1667 12.5833H11.8333C11.4134 12.5833 11.0107 12.7501 10.7137 13.0471ZM10.2883 26.1796C10.3535 26.4702 10.4998 26.739 10.7137 26.9529C11.0107 27.2498 11.4134 27.4166 11.8333 27.4166H28.1667C28.5866 27.4166 28.9893 27.2498 29.2863 26.9529C29.5002 26.739 29.6466 26.4702 29.7117 26.1795L25.5834 23.0833H14.4167L10.2883 26.1796Z" fill="#F2F2F2"/>
</svg>
