<svg width="40" height="40" viewBox="0 0 40 40" fill="none" xmlns="http://www.w3.org/2000/svg">
<rect width="40" height="40" rx="8" fill="#F5499C"/>
<path d="M10.6667 8.75C10.1583 8.75 9.67082 8.95193 9.31138 9.31138C8.95193 9.67082 8.75 10.1583 8.75 10.6667V24.6667C8.75 25.175 8.95193 25.6625 9.31138 26.022C9.67082 26.3814 10.1583 26.5833 10.6667 26.5833H16.8171L16.4212 29.75H15.3333C14.919 29.75 14.5833 30.0858 14.5833 30.5C14.5833 30.9142 14.919 31.25 15.3333 31.25H24.6666C25.0808 31.25 25.4166 30.9142 25.4166 30.5C25.4166 30.0858 25.0808 29.75 24.6666 29.75H23.5787L23.1829 26.5833H29.3333C29.8417 26.5833 30.3292 26.3814 30.6886 26.022C31.0481 25.6625 31.25 25.175 31.25 24.6667V10.6667C31.25 10.1583 31.0481 9.67082 30.6886 9.31138C30.3292 8.95193 29.8417 8.75 29.3333 8.75H10.6667ZM10.372 10.372C10.4502 10.2939 10.5562 10.25 10.6667 10.25H29.3333C29.4438 10.25 29.5498 10.2939 29.628 10.372C29.7061 10.4502 29.75 10.5562 29.75 10.6667V20.4167H10.25V10.6667C10.25 10.5562 10.2939 10.4502 10.372 10.372ZM10.25 24.6667V21.9167H29.75V24.6667C29.75 24.7772 29.7061 24.8832 29.628 24.9613C29.5498 25.0394 29.4438 25.0833 29.3333 25.0833H22.3451L22.3385 25.0833L22.323 25.0833H17.677C17.6696 25.0832 17.6622 25.0832 17.6548 25.0833H10.6667C10.5562 25.0833 10.4502 25.0394 10.372 24.9613C10.2939 24.8832 10.25 24.7772 10.25 24.6667ZM17.9329 29.75L18.3287 26.5833H21.6712L22.0671 29.75H17.9329Z" fill="#F2F2F2"/>
</svg>
