<svg width="24" height="24" viewBox="0 0 24 24" fill="none" xmlns="http://www.w3.org/2000/svg">
<path d="M2.5 4V16C2.5 16.3978 2.65803 16.7794 2.93934 17.0607C3.22065 17.342 3.60218 17.5 4 17.5H9.4336L9.0586 20.5H8C7.72386 20.5 7.5 20.7239 7.5 21C7.5 21.2761 7.72386 21.5 8 21.5H14.4922C14.497 21.5001 14.5017 21.5001 14.5065 21.5H16C16.2761 21.5 16.5 21.2761 16.5 21C16.5 20.7239 16.2761 20.5 16 20.5H14.9414L14.5664 17.5H20C20.3978 17.5 20.7794 17.342 21.0607 17.0607C21.342 16.7794 21.5 16.3978 21.5 16V4C21.5 3.60218 21.342 3.22065 21.0607 2.93934C20.7794 2.65803 20.3978 2.5 20 2.5H4C3.60218 2.5 3.22064 2.65804 2.93934 2.93934C2.65804 3.22064 2.5 3.60218 2.5 4ZM4 3.5H20C20.1326 3.5 20.2598 3.55268 20.3536 3.64645C20.4473 3.74021 20.5 3.86739 20.5 4V12.5H3.5V4C3.5 3.86739 3.55268 3.74021 3.64645 3.64645C3.74021 3.55268 3.86739 3.5 4 3.5ZM14.0079 16.5C14.0031 16.4999 13.9982 16.4999 13.9933 16.5H4C3.86739 16.5 3.74021 16.4473 3.64645 16.3536C3.55268 16.2598 3.5 16.1326 3.5 16V13.5H20.5V16C20.5 16.1326 20.4473 16.2598 20.3536 16.3536C20.2598 16.4473 20.1326 16.5 20 16.5H14.0079ZM13.5586 17.5L13.9336 20.5H10.0664L10.4414 17.5H13.5586Z" fill="white"/>
</svg>
