<svg width="24" height="24" viewBox="0 0 24 24" fill="none" xmlns="http://www.w3.org/2000/svg">
<path d="M14.5205 2.50018C14.077 2.50018 13.6378 2.58755 13.2281 2.75729C12.8183 2.92703 12.446 3.17584 12.1324 3.48946L9.48947 6.13241C9.17584 6.446 8.92704 6.8183 8.7573 7.22805C8.58756 7.6378 8.50019 8.07697 8.50019 8.52049C8.50019 8.96401 8.58756 9.40318 8.7573 9.81293C8.91755 10.1998 9.14826 10.5532 9.43747 10.8554L7.64645 12.6464C7.55268 12.7402 7.5 12.8674 7.5 13V14.5H6C5.72386 14.5 5.5 14.7238 5.5 15V16.5H4C3.86739 16.5 3.74022 16.5527 3.64645 16.6464L3.23245 17.0604C3.22724 17.0656 3.22215 17.071 3.21719 17.0764L3.09819 17.2064C3.09325 17.2118 3.08844 17.2173 3.08375 17.2229C2.70679 17.6728 2.50014 18.2411 2.5 18.828V20C2.5 20.01 2.5003 20.0199 2.50089 20.0299L2.50789 20.1469C2.50846 20.1564 2.50931 20.166 2.51043 20.1755C2.55342 20.5404 2.72882 20.8768 3.00338 21.1209C3.27793 21.3651 3.6326 21.4999 4 21.5H5.172C5.17961 21.5 5.18723 21.4998 5.19483 21.4995L5.36983 21.4915C5.37682 21.4911 5.38381 21.4907 5.39078 21.4901C5.97587 21.4386 6.5242 21.1828 6.93955 20.7675L13.1446 14.5625C13.4468 14.8517 13.8002 15.0824 14.1871 15.2427C14.5968 15.4124 15.036 15.4998 15.4795 15.4998C15.923 15.4998 16.3622 15.4124 16.7719 15.2427C17.1817 15.073 17.554 14.8242 17.8676 14.5105L20.5106 11.8675C20.8242 11.554 21.073 11.1817 21.2427 10.7719C21.4124 10.3622 21.4998 9.92301 21.4998 9.47949C21.4998 9.03597 21.4124 8.5968 21.2427 8.18705C21.073 7.77731 20.8242 7.40502 20.5106 7.09144L16.9086 3.48944C16.595 3.17581 16.2227 2.92703 15.8129 2.75729C15.4032 2.58755 14.964 2.50018 14.5205 2.50018ZM13.6108 3.68116C13.8992 3.56168 14.2083 3.50018 14.5205 3.50018C14.8327 3.50018 15.1418 3.56168 15.4302 3.68116C15.7186 3.80063 15.9807 3.97578 16.2014 4.19654L19.8035 7.79857C20.0242 8.0193 20.1994 8.28135 20.3188 8.56977C20.4383 8.85818 20.4998 9.16731 20.4998 9.47949C20.4998 9.79167 20.4383 10.1008 20.3188 10.3892C20.1994 10.6776 20.0242 10.9397 19.8034 11.1604L17.1604 13.8035C16.9397 14.0242 16.6776 14.1993 16.3892 14.3188C16.1008 14.4383 15.7917 14.4998 15.4795 14.4998C15.1673 14.4998 14.8582 14.4383 14.5698 14.3188C14.2814 14.1993 14.0193 14.0242 13.7986 13.8034L13.4976 13.5024C13.3023 13.3072 12.9857 13.3072 12.7904 13.5024L6.23247 20.0604C5.98557 20.3073 5.66036 20.4602 5.31296 20.493L5.16056 20.5H4C3.87756 20.5 3.75938 20.455 3.66788 20.3736C3.57933 20.2949 3.52173 20.1874 3.5051 20.0703L3.5 19.985V18.828C3.50011 18.4793 3.62173 18.1416 3.84375 17.8729L3.94736 17.7597L4.20711 17.5H6C6.27614 17.5 6.5 17.2761 6.5 17V15.5H8C8.27614 15.5 8.5 15.2761 8.5 15V13.2071L10.4976 11.2095C10.6928 11.0143 10.6928 10.6977 10.4976 10.5024L10.1965 10.2014C9.97576 9.98068 9.80064 9.71863 9.68117 9.43021C9.56169 9.1418 9.50019 8.83267 9.50019 8.52049C9.50019 8.20831 9.56169 7.89918 9.68117 7.61077C9.80064 7.32235 9.97579 7.06027 10.1966 6.83954L12.8396 4.19652C13.0603 3.97575 13.3224 3.80063 13.6108 3.68116Z" fill="white"/>
<path d="M14 8.99999C14 8.44771 14.4433 7.99999 14.9901 7.99999H15.0099C15.5567 7.99999 16 8.44771 16 8.99999C16 9.55228 15.5567 9.99999 15.0099 9.99999H14.9901C14.4433 9.99999 14 9.55228 14 8.99999Z" fill="white"/>
</svg>
