<svg width="24" height="24" viewBox="0 0 24 24" fill="none" xmlns="http://www.w3.org/2000/svg">
<path d="M12.4064 21.4912C12.4871 21.5066 12.5697 21.5016 12.6469 21.4779C13.6731 21.4079 14.6826 21.1715 15.6355 20.7768C16.7881 20.2994 17.8354 19.5996 18.7175 18.7175C19.5997 17.8353 20.2994 16.788 20.7769 15.6354C21.2543 14.4828 21.5 13.2475 21.5 11.9999C21.5 9.48039 20.4991 7.06403 18.7175 5.28243C17.089 3.65391 14.9301 2.6777 12.6468 2.52197C12.5697 2.49832 12.4871 2.4933 12.4065 2.50864C12.2713 2.50285 12.1358 2.49995 12 2.49995C11.8642 2.49995 11.7287 2.50285 11.5935 2.50864C11.5129 2.4933 11.4303 2.49832 11.3532 2.52197C9.06992 2.67769 6.91101 3.6539 5.28249 5.28243C3.50089 7.06403 2.5 9.48039 2.5 11.9999C2.5 13.2475 2.74572 14.4828 3.22314 15.6354C3.70056 16.788 4.40033 17.8353 5.28249 18.7175C6.16464 19.5996 7.21191 20.2994 8.36451 20.7768C9.31745 21.1715 10.3269 21.4079 11.3532 21.4779C11.4303 21.5016 11.5129 21.5066 11.5936 21.4912C11.7288 21.497 11.8643 21.4999 12 21.4999C12.1357 21.4999 12.2712 21.497 12.4064 21.4912ZM12.2217 3.50284C13.1543 5.0553 13.8212 6.74423 14.2023 8.49995H9.79769C10.1788 6.74423 10.8457 5.0553 11.7783 3.50284C11.8521 3.50091 11.926 3.49995 12 3.49995C12.074 3.49995 12.1479 3.50091 12.2217 3.50284ZM14.3873 9.49995C14.5136 10.3241 14.5778 11.1597 14.5778 11.9999C14.5778 12.8402 14.5136 13.6758 14.3873 14.4999H9.6127C9.48637 13.6758 9.42221 12.8402 9.42221 11.9999C9.42221 11.1597 9.48637 10.3241 9.6127 9.49995H14.3873ZM15.3983 14.4999C15.5174 13.675 15.5778 12.8397 15.5778 11.9999C15.5778 11.1602 15.5174 10.3249 15.3983 9.49995H20.1241C20.3711 10.3027 20.5 11.1447 20.5 11.9999C20.5 12.8489 20.3728 13.6914 20.124 14.4999H15.3983ZM14.2023 15.4999C13.8212 17.2557 13.1543 18.9446 12.2217 20.4971C12.1478 20.499 12.0739 20.4999 12 20.4999C11.9261 20.4999 11.8522 20.499 11.7783 20.4971C10.8457 18.9446 10.1788 17.2557 9.79769 15.4999H14.2023ZM13.4428 20.3766C14.2779 18.8447 14.8771 17.2005 15.2242 15.4999H19.746C19.3239 16.4339 18.7362 17.2846 18.0104 18.0104C17.2211 18.7997 16.2841 19.4258 15.2528 19.8529C14.6693 20.0946 14.0622 20.2699 13.4428 20.3766ZM13.4427 3.62325C15.1616 3.91929 16.7606 4.73971 18.0104 5.98954C18.7427 6.72185 19.3276 7.57402 19.746 8.49995H15.2242C14.8771 6.79935 14.2779 5.15518 13.4427 3.62325ZM10.5573 20.3766C9.93782 20.2699 9.33066 20.0946 8.74719 19.8529C7.71592 19.4258 6.77889 18.7997 5.98959 18.0104C5.26383 17.2846 4.67605 16.4339 4.25403 15.4999H8.77578C9.12292 17.2005 9.72207 18.8447 10.5573 20.3766ZM8.42221 11.9999C8.42221 12.8397 8.48263 13.675 8.60169 14.4999H3.87596C3.62716 13.6914 3.5 12.8489 3.5 11.9999C3.5 11.1447 3.6289 10.3027 3.87595 9.49995H8.60169C8.48263 10.3249 8.42221 11.1602 8.42221 11.9999ZM8.77578 8.49995H4.25403C4.6724 7.57402 5.25728 6.72185 5.98959 5.98954C7.23943 4.7397 8.8384 3.91929 10.5573 3.62325C9.72208 5.15518 9.12292 6.79935 8.77578 8.49995Z" fill="white"/>
</svg>
