<svg width="24" height="24" viewBox="0 0 24 24" fill="none" xmlns="http://www.w3.org/2000/svg">
<path d="M12.4064 21.4913C12.4871 21.5067 12.5697 21.5016 12.6469 21.478C13.6731 21.4079 14.6826 21.1716 15.6355 20.7769C16.7881 20.2994 17.8354 19.5997 18.7175 18.7175C19.5997 17.8354 20.2994 16.7881 20.7769 15.6355C21.2543 14.4829 21.5 13.2476 21.5 12C21.5 9.48045 20.4991 7.06409 18.7175 5.28249C17.089 3.65397 14.9301 2.67776 12.6468 2.52203C12.5697 2.49838 12.4871 2.49336 12.4065 2.5087C12.2713 2.50292 12.1358 2.50001 12 2.50001C11.8642 2.50001 11.7287 2.50292 11.5935 2.5087C11.5129 2.49337 11.4303 2.49838 11.3532 2.52203C9.06992 2.67776 6.91101 3.65397 5.28249 5.28249C3.50089 7.06409 2.5 9.48045 2.5 12C2.5 13.2476 2.74572 14.4829 3.22314 15.6355C3.70056 16.7881 4.40033 17.8354 5.28249 18.7175C6.16464 19.5997 7.21191 20.2994 8.36451 20.7769C9.31745 21.1716 10.3269 21.4079 11.3532 21.478C11.4303 21.5016 11.5129 21.5067 11.5936 21.4913C11.7288 21.4971 11.8643 21.5 12 21.5C12.1357 21.5 12.2712 21.4971 12.4064 21.4913ZM12.2217 3.5029C13.1543 5.05536 13.8212 6.74429 14.2023 8.50001H9.79769C10.1788 6.74429 10.8457 5.05536 11.7783 3.5029C11.8521 3.50097 11.926 3.50001 12 3.50001C12.074 3.50001 12.1479 3.50097 12.2217 3.5029ZM14.3873 9.50001C14.5136 10.3241 14.5778 11.1598 14.5778 12C14.5778 12.8402 14.5136 13.6759 14.3873 14.5H9.6127C9.48637 13.6759 9.42221 12.8402 9.42221 12C9.42221 11.1598 9.48637 10.3241 9.6127 9.50001H14.3873ZM15.3983 14.5C15.5174 13.6751 15.5778 12.8397 15.5778 12C15.5778 11.1603 15.5174 10.3249 15.3983 9.50001H20.1241C20.3711 10.3027 20.5 11.1447 20.5 12C20.5 12.8489 20.3728 13.6915 20.124 14.5H15.3983ZM14.2023 15.5C13.8212 17.2557 13.1543 18.9447 12.2217 20.4971C12.1478 20.499 12.0739 20.5 12 20.5C11.9261 20.5 11.8522 20.499 11.7783 20.4971C10.8457 18.9447 10.1788 17.2557 9.79769 15.5H14.2023ZM13.4428 20.3767C14.2779 18.8447 14.8771 17.2006 15.2242 15.5H19.746C19.3239 16.434 18.7362 17.2847 18.0104 18.0104C17.2211 18.7997 16.2841 19.4258 15.2528 19.853C14.6693 20.0947 14.0622 20.27 13.4428 20.3767ZM13.4427 3.62331C15.1616 3.91935 16.7606 4.73977 18.0104 5.9896C18.7427 6.72191 19.3276 7.57408 19.746 8.50001H15.2242C14.8771 6.79941 14.2779 5.15524 13.4427 3.62331ZM10.5573 20.3767C9.93782 20.27 9.33066 20.0947 8.74719 19.853C7.71592 19.4258 6.77889 18.7997 5.98959 18.0104C5.26383 17.2847 4.67605 16.434 4.25403 15.5H8.77578C9.12292 17.2006 9.72207 18.8447 10.5573 20.3767ZM8.42221 12C8.42221 12.8397 8.48263 13.6751 8.60169 14.5H3.87596C3.62716 13.6915 3.5 12.8489 3.5 12C3.5 11.1447 3.6289 10.3027 3.87595 9.50001H8.60169C8.48263 10.3249 8.42221 11.1603 8.42221 12ZM8.77578 8.50001H4.25403C4.6724 7.57408 5.25728 6.72191 5.98959 5.9896C7.23943 4.73977 8.8384 3.91935 10.5573 3.62331C9.72208 5.15524 9.12292 6.79941 8.77578 8.50001Z" fill="white"/>
</svg>
