<svg width="24" height="24" viewBox="0 0 24 24" fill="none" xmlns="http://www.w3.org/2000/svg">
<path d="M12.5 3C12.5 2.72386 12.2761 2.5 12 2.5C11.7239 2.5 11.5 2.72386 11.5 3V4C11.5 4.27614 11.7239 4.5 12 4.5C12.2761 4.5 12.5 4.27614 12.5 4V3Z" fill="white"/>
<path d="M5.95355 5.24645C5.75829 5.05118 5.44171 5.05118 5.24645 5.24645C5.05118 5.44171 5.05118 5.75829 5.24645 5.95355L5.94645 6.65355C6.14171 6.84882 6.45829 6.84882 6.65355 6.65355C6.84882 6.45829 6.84882 6.14171 6.65355 5.94645L5.95355 5.24645Z" fill="white"/>
<path d="M18.7536 5.95355C18.9488 5.75829 18.9488 5.44171 18.7536 5.24645C18.5583 5.05118 18.2417 5.05118 18.0464 5.24645L17.3464 5.94645C17.1512 6.14171 17.1512 6.45829 17.3464 6.65355C17.5417 6.84882 17.8583 6.84882 18.0536 6.65355L18.7536 5.95355Z" fill="white"/>
<path d="M3 11.5C2.72386 11.5 2.5 11.7239 2.5 12C2.5 12.2761 2.72386 12.5 3 12.5H4C4.27614 12.5 4.5 12.2761 4.5 12C4.5 11.7239 4.27614 11.5 4 11.5H3Z" fill="white"/>
<path d="M20 11.5C19.7239 11.5 19.5 11.7239 19.5 12C19.5 12.2761 19.7239 12.5 20 12.5H21C21.2761 12.5 21.5 12.2761 21.5 12C21.5 11.7239 21.2761 11.5 21 11.5H20Z" fill="white"/>
<path d="M6.65355 18.0536C6.84882 17.8583 6.84882 17.5417 6.65355 17.3464C6.45829 17.1512 6.14171 17.1512 5.94645 17.3464L5.24645 18.0464C5.05118 18.2417 5.05118 18.5583 5.24645 18.7536C5.44171 18.9488 5.75829 18.9488 5.95355 18.7536L6.65355 18.0536Z" fill="white"/>
<path d="M18.0536 17.3464C17.8583 17.1512 17.5417 17.1512 17.3464 17.3464C17.1512 17.5417 17.1512 17.8583 17.3464 18.0536L18.0464 18.7536C18.2417 18.9488 18.5583 18.9488 18.7536 18.7536C18.9488 18.5583 18.9488 18.2417 18.7536 18.0464L18.0536 17.3464Z" fill="white"/>
<path d="M12.5 20C12.5 19.7239 12.2761 19.5 12 19.5C11.7239 19.5 11.5 19.7239 11.5 20V21C11.5 21.2761 11.7239 21.5 12 21.5C12.2761 21.5 12.5 21.2761 12.5 21V20Z" fill="white"/>
<path d="M12 7.5C10.8065 7.5 9.66193 7.97411 8.81802 8.81802C7.97411 9.66193 7.5 10.8065 7.5 12C7.5 13.1935 7.97411 14.3381 8.81802 15.182C9.66193 16.0259 10.8065 16.5 12 16.5C13.1935 16.5 14.3381 16.0259 15.182 15.182C16.0259 14.3381 16.5 13.1935 16.5 12C16.5 10.8065 16.0259 9.66193 15.182 8.81802C14.3381 7.97411 13.1935 7.5 12 7.5ZM9.52513 9.52513C10.1815 8.86875 11.0717 8.5 12 8.5C12.9283 8.5 13.8185 8.86875 14.4749 9.52513C15.1313 10.1815 15.5 11.0717 15.5 12C15.5 12.9283 15.1313 13.8185 14.4749 14.4749C13.8185 15.1313 12.9283 15.5 12 15.5C11.0717 15.5 10.1815 15.1313 9.52513 14.4749C8.86875 13.8185 8.5 12.9283 8.5 12C8.5 11.0717 8.86875 10.1815 9.52513 9.52513Z" fill="white"/>
</svg>
