<svg width="24" height="24" viewBox="0 0 24 24" fill="none" xmlns="http://www.w3.org/2000/svg">
<path d="M3.23223 4.23223C3.70107 3.76339 4.33696 3.5 5 3.5H12C12.663 3.5 13.2989 3.76339 13.7678 4.23223C14.2366 4.70107 14.5 5.33696 14.5 6V8C14.5 8.27614 14.2761 8.5 14 8.5C13.7239 8.5 13.5 8.27614 13.5 8V6C13.5 5.60218 13.342 5.22064 13.0607 4.93934C12.7794 4.65804 12.3978 4.5 12 4.5H5C4.60218 4.5 4.22064 4.65804 3.93934 4.93934C3.65804 5.22064 3.5 5.60218 3.5 6V18C3.5 18.3978 3.65804 18.7794 3.93934 19.0607C4.22064 19.342 4.60218 19.5 5 19.5H12C12.3978 19.5 12.7794 19.342 13.0607 19.0607C13.342 18.7794 13.5 18.3978 13.5 18V16C13.5 15.7239 13.7239 15.5 14 15.5C14.2761 15.5 14.5 15.7239 14.5 16V18C14.5 18.663 14.2366 19.2989 13.7678 19.7678C13.2989 20.2366 12.663 20.5 12 20.5H5C4.33696 20.5 3.70107 20.2366 3.23223 19.7678C2.76339 19.2989 2.5 18.663 2.5 18V6C2.5 5.33696 2.76339 4.70107 3.23223 4.23223Z" fill="white"/>
<path d="M17.6464 8.64645C17.8417 8.45118 18.1583 8.45118 18.3536 8.64645L21.3536 11.6464C21.5375 11.8304 21.5481 12.122 21.3856 12.3184C21.3763 12.3296 21.3666 12.3404 21.3564 12.3507C21.3546 12.3525 21.3528 12.3543 21.351 12.3561L18.3536 15.3536C18.1583 15.5488 17.8417 15.5488 17.6464 15.3536C17.4512 15.1583 17.4512 14.8417 17.6464 14.6464L19.7929 12.5H9C8.72386 12.5 8.5 12.2761 8.5 12C8.5 11.7239 8.72386 11.5 9 11.5H19.7929L17.6464 9.35355C17.4512 9.15829 17.4512 8.84171 17.6464 8.64645Z" fill="white"/>
</svg>
