<svg width="24" height="24" viewBox="0 0 24 24" fill="none" xmlns="http://www.w3.org/2000/svg">
<path d="M21.5 17C21.5 17.663 21.2366 18.2989 20.7678 18.7678C20.2989 19.2366 19.663 19.5 19 19.5H5C4.33696 19.5 3.70107 19.2366 3.23223 18.7678C2.76339 18.2989 2.5 17.663 2.5 17V7C2.5 6.33696 2.76339 5.70107 3.23223 5.23223C3.70107 4.76339 4.33696 4.5 5 4.5H19C19.663 4.5 20.2989 4.76339 20.7678 5.23223C21.2338 5.69824 21.4968 6.32927 21.5 6.98796C21.5 6.99197 21.5 6.99599 21.5 7V17ZM3.93934 5.93934C3.71845 6.16023 3.57357 6.44292 3.52152 6.74677L12.0001 12.3991L20.4785 6.74684C20.4265 6.44296 20.2816 6.16025 20.0607 5.93934C19.7794 5.65804 19.3978 5.5 19 5.5H5C4.60218 5.5 4.22064 5.65804 3.93934 5.93934ZM3.5 7.93428V17C3.5 17.3978 3.65804 17.7794 3.93934 18.0607C4.22064 18.342 4.60218 18.5 5 18.5H19C19.3978 18.5 19.7794 18.342 20.0607 18.0607C20.342 17.7794 20.5 17.3978 20.5 17V7.93435L12.2774 13.4161C12.1095 13.528 11.8907 13.528 11.7227 13.4161L3.5 7.93428Z" fill="white"/>
</svg>
