<svg width="40" height="40" viewBox="0 0 40 40" fill="none" xmlns="http://www.w3.org/2000/svg">
<rect width="40" height="40" rx="8" fill="#0070F0"/>
<path d="M20.2634 7.63107C20.0936 7.5674 19.9065 7.5674 19.7367 7.63107L10.4034 11.1311C10.1107 11.2408 9.91675 11.5207 9.91675 11.8333V20C9.91675 23.8348 12.4614 26.9419 14.8395 29.0227L18.1442 31.4641L19.2358 32.1086L19.5466 32.2766L19.6314 32.3206L19.6544 32.3323L19.6613 32.3358L19.6641 32.3372L20.3355 32.3375L20.3368 32.3368L20.3389 32.3358L20.3457 32.3323L20.3687 32.3206C20.3886 32.3104 20.417 32.2957 20.4535 32.2766C20.5265 32.2383 20.6316 32.1821 20.7644 32.1086C21.0297 31.9617 21.4058 31.7454 21.8559 31.4641C22.7545 30.9025 23.9558 30.077 25.1606 29.0227C27.5387 26.9419 30.0834 23.8348 30.0834 20V11.8333C30.0834 11.5207 29.8895 11.2408 29.5968 11.1311L20.2634 7.63107ZM21.0609 30.1921C20.7677 30.3754 20.5088 30.5288 20.2959 30.6509C20.2002 30.7057 20.1139 30.7542 20.0379 30.7963L20.0001 30.8172L19.9623 30.7963C19.7172 30.6606 19.3642 30.4577 18.9392 30.1921C18.0878 29.66 16.9558 28.8813 15.8273 27.8939C13.5388 25.8915 11.4167 23.1652 11.4167 20V12.3531L19.7753 9.21861L20.0001 9.13431L28.5834 12.3531V20C28.5834 23.1652 26.4614 25.8915 24.1729 27.8939C23.0444 28.8813 21.9123 29.66 21.0609 30.1921Z" fill="#F2F2F2"/>
</svg>
