<svg width="40" height="40" viewBox="0 0 40 40" fill="none" xmlns="http://www.w3.org/2000/svg">
<path d="M5.53033 4.46967C5.23744 4.17678 4.76256 4.17678 4.46967 4.46967C4.17678 4.76256 4.17678 5.23744 4.46967 5.53033L7.58334 8.644V31.6667C7.58334 32.7496 8.01354 33.7882 8.77932 34.554C9.54509 35.3198 10.5837 35.75 11.6667 35.75H28.3333C29.4163 35.75 30.4549 35.3198 31.2207 34.554C31.6152 34.1596 31.9206 33.6927 32.124 33.1847L34.4697 35.5303C34.7626 35.8232 35.2374 35.8232 35.5303 35.5303C35.8232 35.2374 35.8232 34.7626 35.5303 34.4697L5.53033 4.46967ZM9.08334 10.144L30.8999 31.9606C30.8339 32.5375 30.5747 33.0787 30.16 33.4934C29.6756 33.9778 29.0185 34.25 28.3333 34.25H11.6667C10.9815 34.25 10.3244 33.9778 9.83998 33.4934C9.35551 33.0089 9.08334 32.3518 9.08334 31.6667V10.144Z" fill="white"/>
<path d="M23.3333 4.25H11.6667C11.2525 4.25 10.9167 4.58579 10.9167 5C10.9167 5.41421 11.2525 5.75 11.6667 5.75H23.0227L30.9167 13.644V25C30.9167 25.4142 31.2525 25.75 31.6667 25.75C32.0809 25.75 32.4167 25.4142 32.4167 25V13.3333C32.4167 13.1344 32.3377 12.9437 32.197 12.803L23.8637 4.46967C23.723 4.32902 23.5322 4.25 23.3333 4.25Z" fill="white"/>
</svg>
