<svg width="24" height="24" viewBox="0 0 24 24" fill="none" xmlns="http://www.w3.org/2000/svg">
<path d="M10.2322 4.23223C9.76339 4.70107 9.5 5.33696 9.5 6C9.5 6.66304 9.76339 7.29893 10.2322 7.76777C10.5814 8.11696 11.0233 8.35218 11.5 8.4495V11.5L6 11.5C5.72386 11.5 5.5 11.7243 5.5 12.0005C5.5 12.0003 5.5 12.0007 5.5 12.0005L5.5 15.5505C5.02328 15.6478 4.58142 15.883 4.23223 16.2322C3.76339 16.7011 3.5 17.337 3.5 18C3.5 18.663 3.76339 19.2989 4.23223 19.7678C4.70107 20.2366 5.33696 20.5 6 20.5C6.66304 20.5 7.29893 20.2366 7.76777 19.7678C8.23661 19.2989 8.5 18.663 8.5 18C8.5 17.337 8.23661 16.7011 7.76777 16.2322C7.41858 15.883 6.97672 15.6478 6.5 15.5505L6.5 12.5L17.5 12.5V15.5505C17.0233 15.6478 16.5814 15.883 16.2322 16.2322C15.7634 16.7011 15.5 17.337 15.5 18C15.5 18.663 15.7634 19.2989 16.2322 19.7678C16.7011 20.2366 17.337 20.5 18 20.5C18.663 20.5 19.2989 20.2366 19.7678 19.7678C20.2366 19.2989 20.5 18.663 20.5 18C20.5 17.337 20.2366 16.7011 19.7678 16.2322C19.4186 15.883 18.9767 15.6478 18.5 15.5505V12C18.5 11.7239 18.2761 11.5 18 11.5L12.5 11.5V8.4495C12.9767 8.35218 13.4186 8.11696 13.7678 7.76777C14.2366 7.29893 14.5 6.66304 14.5 6C14.5 5.33696 14.2366 4.70107 13.7678 4.23223C13.2989 3.76339 12.663 3.5 12 3.5C11.337 3.5 10.7011 3.76339 10.2322 4.23223ZM13.0607 7.06066C12.7794 7.34196 12.3978 7.5 12 7.5C11.6022 7.5 11.2206 7.34196 10.9393 7.06066C10.658 6.77936 10.5 6.39782 10.5 6C10.5 5.60218 10.658 5.22065 10.9393 4.93934C11.2206 4.65804 11.6022 4.5 12 4.5C12.3978 4.5 12.7794 4.65804 13.0607 4.93934C13.342 5.22065 13.5 5.60218 13.5 6C13.5 6.39782 13.342 6.77936 13.0607 7.06066ZM18 16.5C18.3978 16.5 18.7794 16.658 19.0607 16.9393C19.342 17.2206 19.5 17.6022 19.5 18C19.5 18.3978 19.342 18.7794 19.0607 19.0607C18.7794 19.342 18.3978 19.5 18 19.5C17.6022 19.5 17.2206 19.342 16.9393 19.0607C16.658 18.7794 16.5 18.3978 16.5 18C16.5 17.6022 16.658 17.2206 16.9393 16.9393C17.2206 16.658 17.6022 16.5 18 16.5ZM7.06066 19.0607C6.77936 19.342 6.39782 19.5 6 19.5C5.60218 19.5 5.22065 19.342 4.93934 19.0607C4.65804 18.7794 4.5 18.3978 4.5 18C4.5 17.6022 4.65804 17.2206 4.93934 16.9393C5.22065 16.658 5.60218 16.5 6 16.5C6.39782 16.5 6.77936 16.658 7.06066 16.9393C7.34196 17.2206 7.5 17.6022 7.5 18C7.5 18.3978 7.34196 18.7794 7.06066 19.0607Z" fill="white"/>
</svg>
