<svg width="40" height="40" viewBox="0 0 40 40" fill="none" xmlns="http://www.w3.org/2000/svg">
<rect width="40" height="40" rx="8" fill="#F24822"/>
<path d="M20 9.91663C19.1822 9.91663 18.398 10.2415 17.8198 10.8197C17.475 11.1645 17.2095 11.6159 17.0601 12.0706C16.9659 12.3685 16.9167 12.6817 16.9167 13C16.9167 13.8177 17.2415 14.602 17.8198 15.1802C18.2177 15.5782 18.7133 15.8561 19.2502 15.9907V19.25L13.0072 19.25L13.0002 19.25C12.872 19.25 12.7515 19.2821 12.646 19.3387C12.6064 19.3599 12.5689 19.3847 12.5339 19.4125C12.3986 19.52 12.3013 19.6733 12.2654 19.849L12.2502 19.9903L12.2502 20L12.2502 24.0092C11.7133 24.1439 11.2178 24.4218 10.8198 24.8197C10.2416 25.398 9.91675 26.1822 9.91675 27C9.91675 27.8177 10.2416 28.602 10.8198 29.1802C11.3981 29.7585 12.1823 30.0833 13.0001 30.0833C13.8178 30.0833 14.6021 29.7585 15.1803 29.1802C15.7586 28.602 16.0834 27.8177 16.0834 27C16.0834 26.1822 15.7586 25.398 15.1803 24.8197C14.7824 24.4218 14.287 24.1439 13.7502 24.0093L13.7502 20.75L26.2502 20.75V24.0092C25.7133 24.1439 25.2178 24.4218 24.8198 24.8197C24.2416 25.398 23.9167 26.1822 23.9167 27C23.9167 27.8177 24.2416 28.602 24.8198 29.1802C25.3981 29.7585 26.1823 30.0833 27.0001 30.0833C27.8178 30.0833 28.6021 29.7585 29.1803 29.1802C29.7586 28.602 30.0834 27.8177 30.0834 27C30.0834 26.1822 29.7586 25.398 29.1803 24.8197C28.7824 24.4218 28.287 24.1439 27.7502 24.0093V20C27.7502 19.5857 27.4137 19.25 26.9995 19.25L26.9926 19.25L20.7502 19.25V15.9907C21.2869 15.856 21.7824 15.5781 22.1802 15.1802C22.7585 14.602 23.0833 13.8177 23.0833 13C23.0833 12.1822 22.7585 11.398 22.1802 10.8197C21.602 10.2415 20.8178 9.91663 20 9.91663ZM11.8805 25.8804C12.1774 25.5835 12.5802 25.4166 13.0001 25.4166C13.42 25.4166 13.8227 25.5835 14.1197 25.8804C14.4166 26.1773 14.5834 26.5801 14.5834 27C14.5834 27.4199 14.4166 27.8226 14.1197 28.1196C13.8227 28.4165 13.42 28.5833 13.0001 28.5833C12.5802 28.5833 12.1774 28.4165 11.8805 28.1196C11.5836 27.8226 11.4167 27.4199 11.4167 27C11.4167 26.5801 11.5836 26.1773 11.8805 25.8804ZM25.8805 25.8804C26.1774 25.5835 26.5802 25.4166 27.0001 25.4166C27.42 25.4166 27.8227 25.5835 28.1197 25.8804C28.4166 26.1773 28.5834 26.5801 28.5834 27C28.5834 27.4199 28.4166 27.8226 28.1197 28.1196C27.8227 28.4165 27.42 28.5833 27.0001 28.5833C26.5802 28.5833 26.1774 28.4165 25.8805 28.1196C25.5836 27.8226 25.4167 27.4199 25.4167 27C25.4167 26.5801 25.5836 26.1773 25.8805 25.8804ZM18.8804 11.8804C19.1773 11.5834 19.5801 11.4166 20 11.4166C20.4199 11.4166 20.8227 11.5834 21.1196 11.8804C21.4165 12.1773 21.5833 12.58 21.5833 13C21.5833 13.4199 21.4165 13.8226 21.1196 14.1195C20.8227 14.4165 20.4199 14.5833 20 14.5833C19.5801 14.5833 19.1773 14.4165 18.8804 14.1195C18.5835 13.8226 18.4167 13.4199 18.4167 13C18.4167 12.58 18.5835 12.1773 18.8804 11.8804Z" fill="#F2F2F2"/>
</svg>
