<svg width="28" height="28" viewBox="0 0 28 28" fill="none" xmlns="http://www.w3.org/2000/svg">
<path d="M14 3.91663C13.1822 3.91663 12.398 4.24148 11.8198 4.81971C11.475 5.16448 11.2095 5.61594 11.0601 6.07061C10.9659 6.36854 10.9167 6.68172 10.9167 6.99996C10.9167 7.81771 11.2415 8.60197 11.8198 9.1802C12.2177 9.57817 12.7133 9.85611 13.2502 9.99074V13.25L7.00723 13.25L7.00016 13.25C6.87204 13.25 6.75145 13.2821 6.64599 13.3387C6.60637 13.3599 6.56888 13.3847 6.53393 13.4125C6.39862 13.52 6.30133 13.6733 6.2654 13.849L6.25022 13.9903L6.25016 14L6.25016 18.0092C5.71331 18.1439 5.21778 18.4218 4.81984 18.8197C4.2416 19.398 3.91675 20.1822 3.91675 21C3.91675 21.8177 4.2416 22.602 4.81984 23.1802C5.39807 23.7585 6.18233 24.0833 7.00008 24.0833C7.81783 24.0833 8.60209 23.7585 9.18033 23.1802C9.75856 22.602 10.0834 21.8177 10.0834 21C10.0834 20.1822 9.75856 19.398 9.18033 18.8197C8.78242 18.4218 8.28696 18.1439 7.75016 18.0093L7.75016 14.75L20.2502 14.75V18.0092C19.7133 18.1439 19.2178 18.4218 18.8198 18.8197C18.2416 19.398 17.9167 20.1822 17.9167 21C17.9167 21.8177 18.2416 22.602 18.8198 23.1802C19.3981 23.7585 20.1823 24.0833 21.0001 24.0833C21.8178 24.0833 22.6021 23.7585 23.1803 23.1802C23.7586 22.602 24.0834 21.8177 24.0834 21C24.0834 20.1822 23.7586 19.398 23.1803 18.8197C22.7824 18.4218 22.287 18.1439 21.7502 18.0093V14C21.7502 13.5857 21.4137 13.25 20.9995 13.25L20.9926 13.25L14.7502 13.25V9.99065C15.2869 9.856 15.7824 9.57809 16.1802 9.1802C16.7585 8.60197 17.0833 7.81771 17.0833 6.99996C17.0833 6.18221 16.7585 5.39795 16.1802 4.81971C15.602 4.24148 14.8178 3.91663 14 3.91663ZM5.8805 19.8804C6.17743 19.5835 6.58016 19.4166 7.00008 19.4166C7.42001 19.4166 7.82273 19.5835 8.11967 19.8804C8.4166 20.1773 8.58341 20.5801 8.58341 21C8.58341 21.4199 8.4166 21.8226 8.11967 22.1196C7.82273 22.4165 7.42001 22.5833 7.00008 22.5833C6.58015 22.5833 6.17743 22.4165 5.8805 22.1196C5.58356 21.8226 5.41675 21.4199 5.41675 21C5.41675 20.5801 5.58356 20.1773 5.8805 19.8804ZM19.8805 19.8804C20.1774 19.5835 20.5802 19.4166 21.0001 19.4166C21.42 19.4166 21.8227 19.5835 22.1197 19.8804C22.4166 20.1773 22.5834 20.5801 22.5834 21C22.5834 21.4199 22.4166 21.8226 22.1197 22.1196C21.8227 22.4165 21.42 22.5833 21.0001 22.5833C20.5802 22.5833 20.1774 22.4165 19.8805 22.1196C19.5836 21.8226 19.4167 21.4199 19.4167 21C19.4167 20.5801 19.5836 20.1773 19.8805 19.8804ZM12.8804 5.88037C13.1773 5.58344 13.5801 5.41663 14 5.41663C14.4199 5.41663 14.8227 5.58344 15.1196 5.88037C15.4165 6.17731 15.5833 6.58003 15.5833 6.99996C15.5833 7.41989 15.4165 7.82261 15.1196 8.11954C14.8227 8.41648 14.4199 8.58329 14 8.58329C13.5801 8.58329 13.1773 8.41648 12.8804 8.11954C12.5835 7.82261 12.4167 7.41988 12.4167 6.99996C12.4167 6.58003 12.5835 6.17731 12.8804 5.88037Z" fill="white"/>
</svg>
