<svg width="56" height="56" viewBox="0 0 56 56" fill="none" xmlns="http://www.w3.org/2000/svg">
<path d="M28.7498 12.1608C28.7498 11.7466 28.414 11.4108 27.9998 11.4108C27.5856 11.4108 27.2498 11.7466 27.2498 12.1608V27.25H12.1606C11.7464 27.25 11.4106 27.5858 11.4106 28C11.4106 28.4142 11.7464 28.75 12.1606 28.75H27.2498V43.8392C27.2498 44.2534 27.5856 44.5892 27.9998 44.5892C28.414 44.5892 28.7498 44.2534 28.7498 43.8392V28.75H43.839C44.2532 28.75 44.589 28.4142 44.589 28C44.589 27.5858 44.2532 27.25 43.839 27.25H28.7498V12.1608Z" fill="white"/>
</svg>
