<svg width="20" height="20" viewBox="0 0 20 20" fill="none" xmlns="http://www.w3.org/2000/svg">
<path d="M15.6569 10.5002C15.933 10.5002 16.1569 10.2763 16.1569 10.0002C16.1569 9.72405 15.933 9.50019 15.6569 9.50019L10.5 9.50019L10.5 4.34334C10.5 4.06719 10.2761 3.84334 10 3.84334C9.72386 3.84334 9.5 4.06719 9.5 4.34334L9.5 9.50019L4.34315 9.50019C4.067 9.50019 3.84315 9.72405 3.84315 10.0002C3.84315 10.2763 4.067 10.5002 4.34315 10.5002L9.5 10.5002V15.657C9.5 15.9332 9.72386 16.157 10 16.157C10.2761 16.157 10.5 15.9332 10.5 15.657V10.5002L15.6569 10.5002Z" fill="#949494"/>
</svg>
