<svg width="24" height="24" viewBox="0 0 24 24" fill="none" xmlns="http://www.w3.org/2000/svg">
<path d="M17.657 12.5C17.9331 12.5 18.157 12.2761 18.157 12C18.157 11.7239 17.9331 11.5 17.657 11.5H12.5001V6.34314C12.5001 6.067 12.2763 5.84314 12.0001 5.84314C11.724 5.84314 11.5001 6.067 11.5001 6.34314L11.5001 11.5H6.34326C6.06712 11.5 5.84326 11.7239 5.84326 12C5.84326 12.2761 6.06712 12.5 6.34326 12.5H11.5001V17.6568C11.5001 17.933 11.724 18.1568 12.0001 18.1568C12.2763 18.1568 12.5001 17.933 12.5001 17.6568V12.5H17.657Z" fill="white"/>
</svg>
