<svg width="28" height="28" viewBox="0 0 28 28" fill="none" xmlns="http://www.w3.org/2000/svg">
<path d="M14.2634 1.63107C14.0936 1.5674 13.9065 1.5674 13.7367 1.63107L4.40341 5.13107C4.11068 5.24084 3.91675 5.52068 3.91675 5.83331V14C3.91675 17.8348 6.46142 20.9419 8.83954 23.0227L12.1442 25.4641L13.2358 26.1086L13.5466 26.2766L13.6314 26.3206L13.6544 26.3323L13.6613 26.3358L13.6641 26.3372L14.3355 26.3375L14.3368 26.3368L14.3389 26.3358L14.3457 26.3323L14.3687 26.3206C14.3886 26.3104 14.417 26.2957 14.4535 26.2766C14.5265 26.2383 14.6316 26.1821 14.7644 26.1086C15.0297 25.9617 15.4058 25.7454 15.8559 25.4641C16.7545 24.9025 17.9558 24.077 19.1606 23.0227C21.5387 20.9419 24.0834 17.8348 24.0834 14V5.83331C24.0834 5.52068 23.8895 5.24084 23.5968 5.13107L14.2634 1.63107ZM15.0609 24.1921C14.7677 24.3754 14.5088 24.5288 14.2959 24.6509C14.2002 24.7057 14.1139 24.7542 14.0379 24.7963L14.0001 24.8172L13.9623 24.7963C13.7172 24.6606 13.3642 24.4577 12.9392 24.1921C12.0878 23.66 10.9558 22.8813 9.82729 21.8939C7.5388 19.8915 5.41675 17.1652 5.41675 14V6.35306L13.7753 3.21861L14.0001 3.13431L22.5834 6.35306V14C22.5834 17.1652 20.4614 19.8915 18.1729 21.8939C17.0444 22.8813 15.9123 23.66 15.0609 24.1921Z" fill="white"/>
</svg>
