<svg width="24" height="24" viewBox="0 0 24 24" fill="none" xmlns="http://www.w3.org/2000/svg">
<path d="M11.8244 1.53184C11.9376 1.48939 12.0624 1.48939 12.1756 1.53184L20.1756 4.53184C20.3707 4.60502 20.5 4.79158 20.5 5V12C20.5 15.2232 18.3591 17.8501 16.3293 19.6263C15.3038 20.5236 14.2807 21.2267 13.515 21.7052C13.1316 21.9449 12.8114 22.129 12.5859 22.2539C12.4731 22.3163 12.3839 22.3639 12.3223 22.3963C12.2914 22.4125 12.2675 22.4249 12.2509 22.4334L12.2315 22.4432L12.2261 22.446L12.2245 22.4468C12.2243 22.4469 12.2236 22.4472 12 22C11.7764 22.4472 11.7762 22.4471 11.776 22.447L11.7739 22.446L11.7685 22.4432L11.7491 22.4334C11.7325 22.4249 11.7086 22.4125 11.6777 22.3963C11.6161 22.3639 11.5269 22.3163 11.4141 22.2539C11.1886 22.129 10.8684 21.9449 10.485 21.7052C9.71927 21.2267 8.69619 20.5236 7.67075 19.6263C5.64087 17.8501 3.5 15.2232 3.5 12V5C3.5 4.79158 3.62929 4.60502 3.82444 4.53184L11.8244 1.53184ZM12 22L11.776 22.447C11.9168 22.5174 12.0837 22.5171 12.2245 22.4468L12 22ZM12 21.4347C12.031 21.4179 12.0649 21.3993 12.1016 21.379C12.3136 21.2616 12.6184 21.0864 12.985 20.8573C13.7193 20.3983 14.6962 19.7264 15.6707 18.8737C17.6409 17.1499 19.5 14.7768 19.5 12V5.3465L12 2.534L4.5 5.3465V12C4.5 14.7768 6.35913 17.1499 8.32925 18.8737C9.30381 19.7264 10.2807 20.3983 11.015 20.8573C11.3816 21.0864 11.6864 21.2616 11.8984 21.379C11.9351 21.3993 11.969 21.4179 12 21.4347Z" fill="white"/>
</svg>
