<svg width="20" height="20" viewBox="0 0 20 20" fill="none" xmlns="http://www.w3.org/2000/svg">
<path d="M7.5 2.8335C7.58399 2.8335 7.66314 2.8542 7.73263 2.8908L12.5 5.27448L17.2764 2.88628C17.4314 2.80879 17.6155 2.81707 17.7629 2.90817C17.9103 2.99927 18 3.16021 18 3.3335V14.1668C18 14.3562 17.893 14.5293 17.7236 14.614L12.7326 17.1096C12.6671 17.144 12.593 17.1644 12.5144 17.1666C12.5096 17.1668 12.5048 17.1668 12.5 17.1668C12.493 17.1668 12.4859 17.1667 12.4789 17.1664C12.4028 17.1632 12.331 17.1431 12.2674 17.1096L7.5 14.7258L2.72361 17.114C2.56861 17.1915 2.38454 17.1833 2.23713 17.0922C2.08973 17.0011 2 16.8401 2 16.6668V5.8335C2 5.64411 2.107 5.47098 2.27639 5.38628L7.26738 2.89079C7.33686 2.8542 7.41601 2.8335 7.5 2.8335ZM13 15.8578L17 13.8578V4.14251L13 6.14251V15.8578ZM12 6.14251L8 4.14251V13.8578L12 15.8578V6.14251ZM3 6.14251V15.8578L7 13.8578V4.14251L3 6.14251Z" fill="#949494"/>
</svg>
