<svg width="28" height="28" viewBox="0 0 28 28" fill="none" xmlns="http://www.w3.org/2000/svg">
<path d="M24.8943 4.0287C24.6732 3.89204 24.3971 3.87962 24.1646 3.99587L17.5 7.32816L10.8478 4.00207C10.7437 3.9475 10.6253 3.91669 10.5 3.91669C10.3747 3.91669 10.2563 3.9475 10.1522 4.00207L3.16459 7.49587C2.9105 7.62291 2.75 7.88261 2.75 8.16669V23.3334C2.75 23.5933 2.88459 23.8347 3.1057 23.9713C3.32681 24.108 3.60292 24.1204 3.83541 24.0042L10.5 20.6719L17.151 23.9973L17.1522 23.998C17.2465 24.0474 17.3527 24.0774 17.4651 24.0825C17.4767 24.0831 17.4883 24.0834 17.5 24.0834C17.6253 24.0834 17.7438 24.0525 17.8479 23.9979L17.8491 23.9973L24.8354 20.5042C25.0895 20.3771 25.25 20.1174 25.25 19.8334V4.66669C25.25 4.40675 25.1154 4.16535 24.8943 4.0287ZM4.25 22.1198V8.63021L9.75 5.88021V19.3698L4.25 22.1198ZM11.25 19.3698V5.88021L16.75 8.63021V22.1198L11.25 19.3698ZM18.25 22.1198V8.63021L23.75 5.88021V19.3698L18.25 22.1198Z" fill="white"/>
</svg>
