<svg width="40" height="40" viewBox="0 0 40 40" fill="none" xmlns="http://www.w3.org/2000/svg">
<rect width="40" height="40" rx="8" fill="#13A85B"/>
<path d="M30.8943 10.0287C30.6732 9.89204 30.3971 9.87962 30.1646 9.99587L23.5 13.3282L16.8478 10.0021C16.7437 9.9475 16.6253 9.91669 16.5 9.91669C16.3747 9.91669 16.2563 9.9475 16.1522 10.0021L9.16459 13.4959C8.9105 13.6229 8.75 13.8826 8.75 14.1667V29.3334C8.75 29.5933 8.88459 29.8347 9.1057 29.9713C9.32681 30.108 9.60292 30.1204 9.83541 30.0042L16.5 26.6719L23.151 29.9973L23.1522 29.998C23.2465 30.0474 23.3527 30.0774 23.4651 30.0825C23.4767 30.0831 23.4883 30.0834 23.5 30.0834C23.6253 30.0834 23.7438 30.0525 23.8479 29.9979L23.8491 29.9973L30.8354 26.5042C31.0895 26.3771 31.25 26.1174 31.25 25.8334V10.6667C31.25 10.4068 31.1154 10.1654 30.8943 10.0287ZM10.25 28.1198V14.6302L15.75 11.8802V25.3698L10.25 28.1198ZM17.25 25.3698V11.8802L22.75 14.6302V28.1198L17.25 25.3698ZM24.25 28.1198V14.6302L29.75 11.8802V25.3698L24.25 28.1198Z" fill="#F2F2F2"/>
</svg>
