<svg width="24" height="24" viewBox="0 0 24 24" fill="none" xmlns="http://www.w3.org/2000/svg">
<path d="M9 3.5C9.08399 3.5 9.16314 3.52071 9.23263 3.5573L15 6.44098L20.7764 3.55279C20.9314 3.47529 21.1155 3.48357 21.2629 3.57468C21.4103 3.66578 21.5 3.82671 21.5 4V17C21.5 17.1894 21.393 17.3625 21.2236 17.4472L15.2326 20.4427C15.1631 20.4793 15.084 20.5 15 20.5C14.9901 20.5 14.9802 20.4997 14.9704 20.4991C14.8974 20.4949 14.8287 20.475 14.7674 20.4427L9 17.559L3.22361 20.4472C3.06861 20.5247 2.88454 20.5164 2.73713 20.4253C2.58973 20.3342 2.5 20.1733 2.5 20V7C2.5 6.81061 2.607 6.63748 2.77639 6.55279L8.76737 3.5573C8.83686 3.52071 8.91601 3.5 9 3.5ZM15.5 19.191L20.5 16.691V4.80902L15.5 7.30902V19.191ZM14.5 7.30902L9.5 4.80902V16.691L14.5 19.191V7.30902ZM3.5 7.30902V19.191L8.5 16.691V4.80902L3.5 7.30902Z" fill="white"/>
</svg>
