<svg width="24" height="24" viewBox="0 0 24 24" fill="none" xmlns="http://www.w3.org/2000/svg">
<path d="M5 5.5C5 5.22386 4.77614 5 4.5 5C4.22386 5 4 5.22386 4 5.5V5.51C4 5.78614 4.22386 6.01 4.5 6.01C4.77614 6.01 5 5.78614 5 5.51V5.5Z" fill="white"/>
<path d="M8.5 5C8.22386 5 8 5.22386 8 5.5C8 5.77614 8.22386 6 8.5 6H19.5C19.7761 6 20 5.77614 20 5.5C20 5.22386 19.7761 5 19.5 5H8.5Z" fill="white"/>
<path d="M8.5 11C8.22386 11 8 11.2239 8 11.5C8 11.7761 8.22386 12 8.5 12H19.5C19.7761 12 20 11.7761 20 11.5C20 11.2239 19.7761 11 19.5 11H8.5Z" fill="white"/>
<path d="M8 17.5C8 17.2239 8.22386 17 8.5 17H19.5C19.7761 17 20 17.2239 20 17.5C20 17.7761 19.7761 18 19.5 18H8.5C8.22386 18 8 17.7761 8 17.5Z" fill="white"/>
<path d="M4.5 11C4.77614 11 5 11.2239 5 11.5V11.51C5 11.7861 4.77614 12.01 4.5 12.01C4.22386 12.01 4 11.7861 4 11.51V11.5C4 11.2239 4.22386 11 4.5 11Z" fill="white"/>
<path d="M5 17.5C5 17.2239 4.77614 17 4.5 17C4.22386 17 4 17.2239 4 17.5V17.51C4 17.7861 4.22386 18.01 4.5 18.01C4.77614 18.01 5 17.7861 5 17.51V17.5Z" fill="white"/>
</svg>
