<svg width="24" height="24" viewBox="0 0 24 24" fill="none" xmlns="http://www.w3.org/2000/svg">
<path d="M3 5.5C3 5.22386 2.77614 5 2.5 5C2.22386 5 2 5.22386 2 5.5V5.51C2 5.78614 2.22386 6.01 2.5 6.01C2.77614 6.01 3 5.78614 3 5.51V5.5Z" fill="white"/>
<path d="M6.5 5C6.22386 5 6 5.22386 6 5.5C6 5.77614 6.22386 6 6.5 6H17.5C17.7761 6 18 5.77614 18 5.5C18 5.22386 17.7761 5 17.5 5H6.5Z" fill="white"/>
<path d="M6.5 11C6.22386 11 6 11.2239 6 11.5C6 11.7761 6.22386 12 6.5 12H9C9.27614 12 9.5 11.7761 9.5 11.5C9.5 11.2239 9.27614 11 9 11H6.5Z" fill="white"/>
<path d="M6 17.5C6 17.2239 6.22386 17 6.5 17H9C9.27614 17 9.5 17.2239 9.5 17.5C9.5 17.7761 9.27614 18 9 18H6.5C6.22386 18 6 17.7761 6 17.5Z" fill="white"/>
<path d="M2.5 11C2.77614 11 3 11.2239 3 11.5V11.51C3 11.7861 2.77614 12.01 2.5 12.01C2.22386 12.01 2 11.7861 2 11.51V11.5C2 11.2239 2.22386 11 2.5 11Z" fill="white"/>
<path d="M3 17.5C3 17.2239 2.77614 17 2.5 17C2.22386 17 2 17.2239 2 17.5V17.51C2 17.7861 2.22386 18.01 2.5 18.01C2.77614 18.01 3 17.7861 3 17.51V17.5Z" fill="white"/>
<path d="M17 11.7C17 11.4238 16.7761 11.2 16.5 11.2C16.2239 11.2 16 11.4238 16 11.7V13.5019C16 13.619 16.0411 13.7324 16.1161 13.8223L17.1161 15.0203C17.2931 15.2323 17.6084 15.2608 17.8204 15.0838C18.0324 14.9069 18.0608 14.5916 17.8839 14.3796L17 13.3206V11.7Z" fill="white"/>
<path d="M11 13.7C11 10.6624 13.4624 8.19995 16.5 8.19995C19.5376 8.19995 22 10.6624 22 13.7C22 16.7375 19.5376 19.2 16.5 19.2C13.4624 19.2 11 16.7375 11 13.7ZM16.5 9.19995C14.0147 9.19995 12 11.2147 12 13.7C12 16.1852 14.0147 18.2 16.5 18.2C18.9853 18.2 21 16.1852 21 13.7C21 11.2147 18.9853 9.19995 16.5 9.19995Z" fill="white"/>
</svg>
