<svg width="20" height="20" viewBox="0 0 20 20" fill="none" xmlns="http://www.w3.org/2000/svg">
<path d="M8.33325 8.66663C8.60939 8.66663 8.83325 8.89048 8.83325 9.16663V14.1666C8.83325 14.4428 8.60939 14.6666 8.33325 14.6666C8.05711 14.6666 7.83325 14.4428 7.83325 14.1666V9.16663C7.83325 8.89048 8.05711 8.66663 8.33325 8.66663Z" fill="white"/>
<path d="M12.1667 9.16663C12.1667 8.89048 11.9429 8.66663 11.6667 8.66663C11.3906 8.66663 11.1667 8.89048 11.1667 9.16663V14.1666C11.1667 14.4428 11.3906 14.6666 11.6667 14.6666C11.9429 14.6666 12.1667 14.4428 12.1667 14.1666V9.16663Z" fill="white"/>
<path d="M7 5.33337V3.33333C7 2.97971 7.14048 2.64057 7.39052 2.39052C7.64057 2.14048 7.97971 2 8.33333 2H11.6667C12.0203 2 12.3594 2.14048 12.6095 2.39052C12.8595 2.64057 13 2.97971 13 3.33333V5.33337H15.8218C15.8292 5.33321 15.8366 5.33321 15.844 5.33337H16.6666C16.9427 5.33337 17.1666 5.55723 17.1666 5.83337C17.1666 6.10952 16.9427 6.33337 16.6666 6.33337H16.2935L15.5 15.8554C15.4942 16.4221 15.2666 16.9642 14.8655 17.3653C14.4592 17.7717 13.9081 17.9999 13.3334 17.9999H6.66678C6.09214 17.9999 5.54104 17.7717 5.13471 17.3653C4.73361 16.9642 4.50601 16.4221 4.50022 15.8554L3.70672 6.33337H3.33325C3.05711 6.33337 2.83325 6.10952 2.83325 5.83337C2.83325 5.55723 3.05711 5.33337 3.33325 5.33337H4.15625C4.16367 5.33321 4.17106 5.33321 4.17841 5.33337H7ZM8.09763 3.09763C8.03512 3.16014 8 3.24493 8 3.33333V5.33337H12V3.33333C12 3.24493 11.9649 3.16014 11.9024 3.09763C11.8399 3.03512 11.7551 3 11.6667 3H8.33333C8.24493 3 8.16014 3.03512 8.09763 3.09763ZM5.49838 15.7918C5.49953 15.8056 5.50011 15.8194 5.50011 15.8333C5.50011 16.1427 5.62303 16.4394 5.84182 16.6582C6.06061 16.877 6.35736 16.9999 6.66678 16.9999H13.3334C13.6429 16.9999 13.9396 16.877 14.1584 16.6582C14.3772 16.4394 14.5001 16.1427 14.5001 15.8333C14.5001 15.8194 14.5007 15.8056 14.5018 15.7918L15.29 6.33337H4.71018L5.49838 15.7918Z" fill="white"/>
</svg>
