<svg width="24" height="24" viewBox="0 0 24 24" fill="none" xmlns="http://www.w3.org/2000/svg">
<path d="M10 10.5C10.2761 10.5 10.5 10.7239 10.5 11V17C10.5 17.2761 10.2761 17.5 10 17.5C9.72386 17.5 9.5 17.2761 9.5 17V11C9.5 10.7239 9.72386 10.5 10 10.5Z" fill="white"/>
<path d="M14.5 17V11C14.5 10.7239 14.2761 10.5 14 10.5C13.7239 10.5 13.5 10.7239 13.5 11V17C13.5 17.2761 13.7239 17.5 14 17.5C14.2761 17.5 14.5 17.2761 14.5 17Z" fill="white"/>
<path d="M8.5 6.5V4C8.5 3.60217 8.65804 3.22064 8.93934 2.93934C9.22064 2.65804 9.60218 2.5 10 2.5H14C14.3978 2.5 14.7794 2.65804 15.0607 2.93934C15.342 3.22064 15.5 3.60217 15.5 4V6.5H20C20.2761 6.5 20.5 6.72386 20.5 7C20.5 7.27614 20.2761 7.5 20 7.5H19.4601L18.4999 19.022C18.4942 19.6771 18.2315 20.3041 17.7678 20.7678C17.299 21.2366 16.6631 21.5 16 21.5H8.00003C7.33699 21.5 6.7011 21.2366 6.23226 20.7678C5.7686 20.3041 5.50587 19.6771 5.50012 19.022L4.53996 7.5H4C3.72386 7.5 3.5 7.27614 3.5 7C3.5 6.72386 3.72386 6.5 4 6.5H8.5ZM9.64645 3.64645C9.55268 3.74021 9.5 3.86739 9.5 4V6.5H14.5V4C14.5 3.86739 14.4473 3.74021 14.3536 3.64645C14.2598 3.55268 14.1326 3.5 14 3.5H10C9.86739 3.5 9.74021 3.55268 9.64645 3.64645ZM5.54343 7.5L6.4983 18.9585C6.49945 18.9723 6.50003 18.9862 6.50003 19C6.50003 19.3979 6.65806 19.7794 6.93937 20.0607C7.22067 20.342 7.6022 20.5 8.00003 20.5H16C16.3979 20.5 16.7794 20.342 17.0607 20.0607C17.342 19.7794 17.5 19.3979 17.5 19C17.5 18.9862 17.5006 18.9723 17.5018 18.9585L18.4566 7.5H5.54343Z" fill="white"/>
</svg>
