<svg width="20" height="20" viewBox="0 0 20 20" fill="none" xmlns="http://www.w3.org/2000/svg">
<path d="M10.3589 2.98525C10.268 2.89158 10.1408 2.83337 10 2.83337C9.99621 2.83337 9.99242 2.83342 9.98862 2.8335C9.93887 2.83462 9.88925 2.84312 9.84155 2.859C9.7702 2.88276 9.70315 2.92303 9.64637 2.97982L5.4797 7.14649C5.28444 7.34175 5.28444 7.65833 5.4797 7.85359C5.67496 8.04886 5.99154 8.04886 6.18681 7.85359L9.5 4.5404V13.3334C9.5 13.6095 9.72386 13.8334 10 13.8334C10.2761 13.8334 10.5 13.6095 10.5 13.3334V4.54056L13.813 7.85359C14.0083 8.04886 14.3249 8.04886 14.5201 7.85359C14.7154 7.65833 14.7154 7.34175 14.5201 7.14649L10.3589 2.98525Z" fill="white"/>
<path d="M3.33325 13.6666C3.60939 13.6666 3.83325 13.8905 3.83325 14.1666V15.8333C3.83325 16.1427 3.95617 16.4395 4.17496 16.6582C4.39375 16.877 4.6905 17 4.99992 17H14.9999C15.3093 17 15.6061 16.877 15.8249 16.6582C16.0437 16.4395 16.1666 16.1427 16.1666 15.8333V14.1666C16.1666 13.8905 16.3904 13.6666 16.6666 13.6666C16.9427 13.6666 17.1666 13.8905 17.1666 14.1666V15.8333C17.1666 16.4079 16.9383 16.959 16.532 17.3654C16.1257 17.7717 15.5746 18 14.9999 18H4.99992C4.42528 18 3.87418 17.7717 3.46785 17.3654C3.06153 16.959 2.83325 16.4079 2.83325 15.8333V14.1666C2.83325 13.8905 3.05711 13.6666 3.33325 13.6666Z" fill="white"/>
</svg>
