<svg width="24" height="24" viewBox="0 0 24 24" fill="none" xmlns="http://www.w3.org/2000/svg">
<path d="M12 2.5C10.8065 2.5 9.66193 2.97411 8.81802 3.81802C7.97411 4.66193 7.5 5.80653 7.5 7C7.5 8.19347 7.97411 9.33807 8.81802 10.182C9.66193 11.0259 10.8065 11.5 12 11.5C13.1935 11.5 14.3381 11.0259 15.182 10.182C16.0259 9.33807 16.5 8.19347 16.5 7C16.5 5.80653 16.0259 4.66193 15.182 3.81802C14.3381 2.97411 13.1935 2.5 12 2.5ZM9.52513 4.52513C10.1815 3.86875 11.0717 3.5 12 3.5C12.9283 3.5 13.8185 3.86875 14.4749 4.52513C15.1313 5.1815 15.5 6.07174 15.5 7C15.5 7.92826 15.1313 8.8185 14.4749 9.47487C13.8185 10.1313 12.9283 10.5 12 10.5C11.0717 10.5 10.1815 10.1313 9.52513 9.47487C8.86875 8.8185 8.5 7.92826 8.5 7C8.5 6.07174 8.86875 5.1815 9.52513 4.52513Z" fill="white"/>
<path d="M7.52513 16.5251C8.1815 15.8687 9.07174 15.5 10 15.5H14C14.9283 15.5 15.8185 15.8687 16.4749 16.5251C17.1313 17.1815 17.5 18.0717 17.5 19V21C17.5 21.2761 17.7239 21.5 18 21.5C18.2761 21.5 18.5 21.2761 18.5 21V19C18.5 17.8065 18.0259 16.6619 17.182 15.818C16.3381 14.9741 15.1935 14.5 14 14.5H10C8.80653 14.5 7.66193 14.9741 6.81802 15.818C5.97411 16.6619 5.5 17.8065 5.5 19V21C5.5 21.2761 5.72386 21.5 6 21.5C6.27614 21.5 6.5 21.2761 6.5 21V19C6.5 18.0717 6.86875 17.1815 7.52513 16.5251Z" fill="white"/>
</svg>
